<svg id="svg" version="1.1" width="400" height="246.0093896713615" viewBox="0 0 400 246.0093896713615" xmlns="http://www.w3.org/2000/svg" xmlns:xlink="http://www.w3.org/1999/xlink" ><g id="svgg"><path id="path0" d="M0.000 123.077 L 0.000 246.154 200.000 246.154 L 400.000 246.154 400.000 123.077 L 400.000 0.000 200.000 0.000 L 0.000 0.000 0.000 123.077 M206.478 51.083 C 209.294 52.416,210.414 52.622,211.938 52.086 C 216.624 50.439,220.304 51.129,224.435 54.430 C 225.438 55.232,226.627 55.956,227.143 56.077 C 229.941 56.739,230.504 56.908,231.571 57.403 C 233.284 58.198,235.523 60.568,237.106 63.262 C 238.818 66.174,239.018 66.356,242.341 68.027 C 246.573 70.156,248.133 71.799,249.139 75.187 C 249.829 77.510,250.180 78.143,251.730 79.858 C 254.414 82.828,255.247 85.262,254.880 89.063 C 254.425 93.781,254.527 94.381,256.339 97.656 C 258.531 101.619,258.774 104.054,257.374 108.062 C 256.481 110.618,256.473 110.676,256.636 113.368 C 256.912 117.949,256.172 119.788,252.456 123.760 C 250.334 126.029,249.850 126.942,249.848 128.687 C 249.840 132.928,247.835 136.562,244.185 138.950 C 242.254 140.212,241.835 140.666,240.546 142.892 C 238.516 146.396,235.955 147.954,230.646 148.916 C 229.122 149.192,226.954 150.194,226.954 150.621 C 226.954 151.072,223.228 154.568,221.998 155.271 C 220.165 156.320,217.519 156.897,215.896 156.602 C 214.211 156.296,213.181 156.522,210.645 157.755 C 206.894 159.579,204.432 159.422,199.375 157.038 C 196.385 155.629,196.027 155.593,192.043 156.311 C 187.914 157.054,186.116 156.586,182.473 153.816 C 181.342 152.956,180.575 152.580,179.519 152.368 C 174.027 151.264,171.571 149.403,169.108 144.479 C 167.804 141.871,167.432 141.519,164.362 139.992 C 159.910 137.777,158.324 135.992,157.046 131.760 C 156.599 130.277,156.249 129.690,154.942 128.233 C 152.210 125.186,151.222 122.699,151.475 119.508 C 151.550 118.560,151.684 116.843,151.771 115.692 L 151.931 113.600 150.676 111.218 C 147.943 106.027,147.643 103.728,149.160 99.569 C 149.950 97.402,149.964 97.292,149.812 94.523 C 149.559 89.933,150.645 87.360,154.330 83.815 C 156.015 82.195,156.368 81.420,156.713 78.574 C 157.293 73.802,158.700 71.382,162.318 68.934 C 164.377 67.540,164.550 67.354,165.858 65.108 C 167.918 61.569,171.036 59.622,175.548 59.056 C 177.631 58.794,178.315 58.448,179.704 56.950 C 184.325 51.969,185.414 51.417,190.769 51.343 C 194.157 51.296,194.423 51.256,196.015 50.548 C 197.643 49.823,197.781 49.804,200.894 49.878 L 204.097 49.955 206.478 51.083 M198.205 50.936 C 197.073 51.224,196.313 51.935,196.731 52.317 C 198.163 53.627,206.523 54.272,206.523 53.073 C 206.523 51.645,201.000 50.225,198.205 50.936 M187.446 52.683 C 185.148 53.147,180.655 56.945,181.456 57.746 C 182.163 58.454,186.326 56.728,189.723 54.320 C 191.729 52.898,190.558 52.056,187.446 52.683 M214.658 52.704 C 211.122 53.242,211.802 54.441,216.301 55.601 C 218.862 56.262,222.946 56.344,223.178 55.739 C 223.863 53.955,218.646 52.097,214.658 52.704 M192.615 53.953 C 192.345 54.106,191.071 54.915,189.785 55.753 C 186.338 57.996,183.903 59.029,181.113 59.430 C 179.993 59.591,177.231 61.438,177.231 62.026 C 177.231 62.900,172.725 65.735,168.615 67.446 C 165.975 68.546,165.134 69.487,164.435 72.124 C 163.807 74.494,161.830 78.102,160.184 79.881 C 158.175 82.053,157.574 83.241,157.147 85.885 C 156.723 88.512,156.102 90.091,154.380 92.923 C 151.657 97.403,151.660 97.380,153.150 101.736 L 154.178 104.738 154.203 109.662 L 154.228 114.585 155.493 117.046 C 156.789 119.568,157.066 120.773,157.912 127.552 C 158.097 129.037,158.515 129.540,161.343 131.684 C 164.148 133.811,165.711 135.473,167.088 137.790 C 168.355 139.923,168.900 140.388,171.925 141.920 C 174.760 143.355,176.513 144.866,179.213 148.200 C 181.528 151.059,181.516 151.054,186.215 151.223 C 189.827 151.353,191.256 151.659,194.445 152.983 C 196.163 153.696,196.394 153.701,200.862 153.101 C 203.644 152.728,206.076 152.956,209.927 153.952 C 213.041 154.758,213.341 154.688,216.492 152.428 C 219.463 150.296,220.998 149.558,224.202 148.721 C 226.869 148.023,228.856 146.894,229.258 145.847 C 229.708 144.675,233.759 142.177,238.277 140.285 C 240.644 139.294,241.134 138.650,242.376 134.899 C 243.300 132.106,244.547 129.944,246.414 127.895 C 248.657 125.436,248.956 124.776,249.493 121.108 C 249.737 119.445,250.602 117.496,252.581 114.153 C 254.555 110.819,254.781 109.823,253.993 107.931 C 252.575 104.530,251.960 100.496,252.380 97.348 C 252.683 95.074,252.408 93.756,251.083 91.128 C 249.794 88.571,249.326 86.677,248.863 82.143 C 248.519 78.778,248.239 78.341,244.923 76.002 C 242.763 74.479,241.072 72.673,239.390 70.094 C 237.816 67.679,237.610 67.505,234.343 65.828 C 231.936 64.592,229.831 62.747,226.829 59.243 C 225.367 57.536,224.847 57.368,221.004 57.360 C 217.878 57.353,214.992 56.739,212.283 55.504 C 209.768 54.358,209.223 54.295,205.956 54.767 C 202.919 55.207,199.783 54.943,197.292 54.040 C 196.120 53.615,193.310 53.563,192.615 53.953 M228.185 58.316 C 228.185 60.246,235.383 66.036,236.179 64.747 C 236.442 64.322,234.511 61.268,233.234 60.091 C 231.254 58.266,228.185 57.187,228.185 58.316 M173.046 60.893 C 170.306 61.712,168.337 63.151,167.354 65.055 C 166.379 66.944,166.999 66.913,171.468 64.848 C 176.611 62.472,177.810 59.469,173.046 60.893 M240.657 69.273 C 240.214 70.427,246.363 76.412,247.531 75.964 C 248.122 75.737,247.809 74.503,246.760 72.923 C 245.238 70.630,241.088 68.149,240.657 69.273 M161.094 71.419 C 159.156 73.252,157.607 76.992,157.979 78.939 C 158.366 80.959,161.356 77.246,162.826 72.920 C 163.882 69.813,163.313 69.320,161.094 71.419 M217.108 71.619 C 224.988 73.569,234.754 79.541,233.927 81.905 C 233.085 84.314,231.250 84.648,229.005 82.802 C 208.646 66.063,178.808 80.327,179.769 106.338 C 180.580 128.293,203.450 141.578,223.178 131.555 C 228.059 129.075,228.000 129.201,225.814 125.906 C 223.472 122.375,222.746 121.755,221.895 122.559 C 220.608 123.776,214.911 125.923,212.016 126.283 C 197.923 128.034,185.409 113.967,189.019 100.431 C 192.665 86.755,206.585 80.429,219.274 86.682 C 221.738 87.896,221.823 87.919,222.300 87.487 C 223.255 86.622,222.833 86.124,219.908 84.662 C 204.218 76.817,186.349 87.850,186.340 105.388 C 186.331 122.704,204.589 134.016,219.823 126.133 C 222.090 124.960,222.762 125.042,223.732 126.611 C 224.894 128.491,224.391 129.252,220.930 130.851 C 199.462 140.770,175.779 120.188,182.558 97.503 C 188.478 77.696,213.579 70.540,228.123 84.513 C 229.832 86.154,229.822 86.182,225.771 90.954 C 222.661 94.618,222.547 94.652,219.938 92.689 C 204.330 80.939,184.544 100.410,196.937 115.323 C 203.068 122.702,210.930 123.515,220.481 117.759 C 224.895 115.099,224.182 114.681,229.880 123.272 C 234.807 130.701,234.752 130.061,230.687 132.709 C 216.084 142.221,201.391 142.346,189.032 133.064 C 164.308 114.497,174.139 75.522,204.677 71.042 C 206.802 70.730,215.067 71.114,217.108 71.619 M250.175 81.124 C 249.479 82.938,251.592 90.790,252.841 91.027 C 253.810 91.211,253.942 85.667,253.015 83.750 C 252.021 81.699,250.496 80.287,250.175 81.124 M153.627 86.518 C 151.655 88.603,150.507 91.725,150.996 93.673 C 151.405 95.302,153.386 93.007,155.077 88.946 C 156.579 85.339,155.868 84.148,153.627 86.518 M253.592 97.415 C 252.741 99.489,254.507 107.815,255.798 107.815 C 256.751 107.815,257.433 103.392,256.750 101.639 C 255.360 98.073,254.742 96.985,254.108 96.985 C 253.922 96.985,253.690 97.178,253.592 97.415 M149.901 101.231 C 148.746 103.775,150.516 110.600,152.425 110.967 C 153.771 111.227,153.029 103.749,151.409 100.722 C 150.967 99.896,150.424 100.079,149.901 101.231 M254.231 113.908 C 251.828 116.718,249.734 122.831,251.174 122.831 C 251.623 122.831,253.647 120.638,254.506 119.223 C 256.017 116.732,255.777 112.100,254.231 113.908 M153.225 116.932 C 152.015 118.890,152.973 124.201,154.901 126.215 C 156.354 127.735,156.765 127.047,156.223 124.003 C 156.023 122.885,155.796 121.516,155.718 120.962 C 155.390 118.639,153.779 116.035,153.225 116.932 M246.656 129.401 C 245.052 131.223,242.641 136.648,243.103 137.396 C 243.958 138.780,247.211 135.128,248.119 131.763 C 249.056 128.289,248.469 127.341,246.656 129.401 M158.704 132.246 C 158.195 133.725,161.250 137.241,164.189 138.560 C 167.506 140.049,165.199 136.048,160.888 132.836 C 159.648 131.912,158.890 131.707,158.704 132.246 M237.025 142.139 C 231.933 144.205,228.301 147.711,231.580 147.395 C 234.523 147.113,238.139 144.963,239.108 142.921 C 239.857 141.344,239.405 141.175,237.025 142.139 M170.196 143.099 C 169.533 144.828,174.097 149.714,177.104 150.494 C 179.797 151.192,179.459 149.956,176.000 146.451 C 173.255 143.671,170.572 142.121,170.196 143.099 M223.015 150.255 C 219.795 151.165,215.361 154.342,216.265 155.093 C 217.512 156.128,221.469 154.606,223.774 152.206 C 225.761 150.137,225.531 149.546,223.015 150.255 M184.149 152.594 C 183.369 153.088,184.996 154.503,186.974 155.053 C 188.772 155.552,192.963 155.216,193.382 154.540 C 194.118 153.349,185.744 151.584,184.149 152.594 M200.369 154.258 C 198.261 154.695,199.063 155.705,202.649 157.125 C 205.300 158.176,208.833 157.862,210.409 156.436 C 211.779 155.196,203.991 153.507,200.369 154.258 M147.242 166.561 C 148.274 167.495,147.470 169.600,146.081 169.600 C 144.629 169.600,143.740 167.645,144.738 166.646 C 145.340 166.044,146.623 166.001,147.242 166.561 M131.480 167.131 C 135.809 168.476,140.308 173.145,140.308 176.294 C 140.308 178.758,138.633 178.227,137.081 175.271 C 132.717 166.960,119.568 167.237,115.105 175.734 C 112.748 180.221,112.741 186.993,115.087 191.904 C 118.712 199.489,128.899 201.180,136.201 195.408 C 138.847 193.316,140.029 195.286,137.509 197.590 C 129.925 204.520,117.043 202.143,112.558 192.985 C 105.421 178.413,116.975 162.627,131.480 167.131 M210.611 171.754 C 210.822 172.032,210.941 172.931,210.946 174.289 C 210.957 177.112,210.717 176.984,215.988 176.988 C 220.852 176.992,221.608 177.157,221.736 178.242 C 221.876 179.438,221.387 179.562,216.224 179.649 C 212.580 179.711,211.410 179.808,211.196 180.067 C 210.786 180.561,210.981 195.051,211.411 196.062 C 212.243 198.018,213.862 198.643,216.894 198.179 C 218.994 197.857,219.683 197.946,219.921 198.567 C 220.921 201.171,213.141 201.812,210.344 199.356 C 208.515 197.751,208.379 197.008,208.292 188.191 C 208.206 179.458,208.254 179.692,206.530 179.692 C 202.858 179.692,202.341 177.251,205.966 177.030 C 208.181 176.895,208.246 176.820,208.246 174.425 C 208.246 171.670,209.485 170.271,210.611 171.754 M169.495 176.987 C 173.657 179.115,174.154 180.660,174.154 191.467 L 174.154 199.673 173.601 200.122 C 172.979 200.625,172.162 200.524,171.829 199.902 C 171.709 199.678,171.572 195.898,171.525 191.502 C 171.426 182.422,171.303 181.787,169.305 180.076 C 166.859 177.983,161.657 178.226,159.067 180.554 C 156.987 182.424,156.956 182.582,156.850 191.625 C 156.799 195.955,156.660 199.679,156.540 199.902 C 156.198 200.541,155.395 200.620,154.711 200.081 L 154.092 199.595 154.092 188.714 C 154.092 179.264,154.143 177.761,154.475 177.286 C 155.040 176.480,155.750 176.599,156.340 177.600 C 156.952 178.636,157.114 178.652,158.351 177.795 C 161.314 175.742,166.344 175.377,169.495 176.987 M195.239 176.906 C 198.844 178.600,201.108 182.693,201.108 187.520 C 201.108 191.100,201.341 191.015,191.508 191.015 C 186.357 191.015,183.177 191.109,182.876 191.270 C 181.301 192.113,183.791 196.560,186.708 198.114 C 188.709 199.180,193.476 199.103,195.569 197.970 C 197.168 197.104,197.648 197.008,198.105 197.465 C 200.193 199.553,192.972 202.408,188.315 201.334 C 176.472 198.605,176.028 179.177,187.741 176.257 C 189.782 175.748,193.450 176.065,195.239 176.906 M239.593 176.931 C 248.397 181.050,248.859 195.882,240.319 200.209 C 230.204 205.335,220.173 195.541,223.820 184.099 C 225.960 177.385,233.369 174.018,239.593 176.931 M265.646 176.486 C 276.065 179.705,276.529 196.615,266.312 200.769 C 259.494 203.540,252.277 199.482,250.678 191.977 C 248.519 181.842,256.441 173.643,265.646 176.486 M292.350 176.326 C 297.593 177.686,298.708 180.385,298.708 191.714 L 298.708 199.673 298.127 200.144 C 297.406 200.728,297.302 200.728,296.581 200.145 L 296.000 199.675 295.877 191.450 L 295.754 183.225 295.012 181.774 C 292.735 177.325,284.490 177.643,282.106 182.271 C 281.478 183.491,281.477 183.501,281.354 191.584 C 281.232 199.603,281.226 199.679,280.678 200.122 C 280.075 200.610,279.337 200.536,278.839 199.936 C 278.417 199.428,278.232 179.299,278.636 177.923 C 279.061 176.478,280.652 176.432,281.008 177.853 C 281.191 178.580,281.661 178.625,282.547 178.001 C 285.180 176.147,289.085 175.479,292.350 176.326 M146.854 177.256 C 147.431 177.893,147.725 198.364,147.177 199.687 C 146.787 200.629,145.842 200.843,145.147 200.148 C 144.618 199.620,144.615 199.558,144.615 188.648 L 144.615 177.679 145.197 177.209 C 145.940 176.607,146.275 176.616,146.854 177.256 M187.938 178.925 C 184.480 179.833,181.219 184.793,182.010 187.942 L 182.165 188.561 190.071 188.496 C 199.342 188.420,198.660 188.664,198.210 185.576 C 197.434 180.254,193.235 177.535,187.938 178.925 M231.681 179.160 C 224.501 181.717,223.839 194.211,230.687 197.924 C 235.339 200.446,241.212 198.144,242.973 193.108 C 246.023 184.390,239.527 176.366,231.681 179.160 M259.162 179.037 C 255.493 180.404,253.901 182.704,253.171 187.692 C 252.142 194.725,258.196 200.436,264.681 198.550 C 272.137 196.383,273.242 183.408,266.288 179.681 C 264.478 178.711,260.904 178.388,259.162 179.037 " stroke="none" fill="#fcfbfb" fill-rule="evenodd"></path><path id="path1" d="M206.289 71.888 C 182.587 74.290,168.828 99.275,179.590 120.369 C 187.222 135.328,204.374 142.521,219.815 137.237 C 224.316 135.698,232.405 130.956,232.574 129.759 C 232.674 129.051,224.927 117.262,224.213 117.036 C 223.911 116.940,222.860 117.428,221.109 118.478 C 215.564 121.804,213.627 122.462,209.477 122.433 C 194.244 122.326,186.647 103.796,197.427 93.039 C 203.471 87.006,212.277 86.395,219.862 91.481 C 222.726 93.402,222.374 93.504,225.479 89.853 C 228.866 85.870,228.866 85.954,225.537 83.569 C 211.364 73.416,192.379 78.232,184.976 93.859 C 177.576 109.481,186.595 127.785,203.692 131.841 C 211.553 133.705,225.304 130.171,222.762 126.939 C 222.082 126.075,221.889 126.095,219.551 127.271 C 203.844 135.168,183.556 121.541,185.271 104.246 C 187.065 86.161,204.199 75.953,219.938 83.592 C 223.976 85.551,224.675 86.512,223.163 88.025 C 222.080 89.107,222.027 89.101,218.767 87.515 C 198.860 77.831,180.129 101.269,194.283 118.154 C 200.766 125.889,210.072 127.538,219.737 122.665 C 223.699 120.668,223.378 120.555,226.340 124.990 C 229.372 129.529,229.378 129.517,222.892 132.691 C 198.426 144.665,171.695 121.343,180.318 95.547 C 187.117 75.207,212.031 67.995,228.857 81.495 C 231.184 83.362,231.532 83.476,232.326 82.630 C 233.143 81.761,232.995 81.145,231.692 79.992 C 225.244 74.284,214.972 71.008,206.289 71.888 " stroke="none" fill="#d71a30" fill-rule="evenodd"></path><path id="path2" d="M145.517 167.109 C 145.011 167.429,145.264 168.480,145.868 168.566 C 146.607 168.671,147.062 168.046,146.716 167.400 C 146.427 166.860,146.053 166.769,145.517 167.109 M122.418 167.875 C 115.417 169.710,111.445 175.540,111.430 184.000 C 111.409 196.828,122.954 204.566,133.865 199.037 C 135.429 198.245,137.600 196.511,137.600 196.056 C 137.600 195.541,137.584 195.549,135.533 197.020 C 130.527 200.612,122.971 200.585,118.154 196.959 C 109.962 190.792,110.762 174.456,119.472 170.050 C 126.550 166.469,134.627 168.598,137.887 174.902 C 138.808 176.685,139.476 177.040,139.247 175.625 C 138.322 169.928,129.713 165.963,122.418 167.875 M209.227 174.338 C 209.222 177.363,208.731 177.969,206.289 177.969 C 205.076 177.969,204.656 178.259,205.436 178.558 C 205.650 178.640,206.352 178.708,206.997 178.708 C 209.143 178.708,209.088 178.479,209.237 188.025 C 209.371 196.590,209.389 196.743,210.410 198.122 C 211.577 199.699,215.417 200.507,217.672 199.650 C 218.780 199.229,218.429 199.100,216.652 199.275 C 211.028 199.829,210.215 198.325,210.215 187.356 C 210.215 177.789,209.672 178.709,215.323 178.704 C 219.497 178.701,220.658 178.583,220.413 178.187 C 220.339 178.067,218.339 177.969,215.969 177.969 C 210.323 177.969,210.225 177.921,210.219 175.097 C 210.215 173.115,210.073 172.554,209.574 172.554 C 209.312 172.554,209.230 172.979,209.227 174.338 M163.200 176.909 C 161.294 177.228,159.427 178.096,157.785 179.428 C 156.821 180.210,156.150 180.090,155.815 179.077 C 155.418 177.872,155.084 178.004,155.039 179.385 C 154.927 182.872,155.156 199.046,155.320 199.221 C 155.811 199.744,155.947 198.236,156.062 191.015 L 156.185 183.262 156.911 181.826 C 159.219 177.268,167.249 176.179,170.468 179.988 C 172.126 181.949,172.178 182.258,172.249 190.523 C 172.318 198.553,172.365 199.138,172.928 199.138 C 173.564 199.138,173.457 184.216,172.806 182.108 C 171.640 178.334,167.635 176.166,163.200 176.909 M188.800 177.007 C 175.967 179.168,177.983 200.730,191.015 200.704 C 192.554 200.700,196.172 199.511,196.562 198.880 C 196.634 198.762,196.164 198.906,195.516 199.199 C 193.709 200.016,189.663 200.112,187.299 199.394 C 183.253 198.165,179.660 191.677,182.256 190.288 L 182.864 189.963 182.078 189.434 C 179.039 187.392,182.616 179.690,187.287 178.217 C 193.664 176.205,198.755 179.628,199.083 186.148 L 199.204 188.542 198.407 189.286 L 197.609 190.031 198.611 190.031 C 200.019 190.031,200.223 189.548,200.058 186.600 C 199.684 179.869,195.083 175.949,188.800 177.007 M232.934 176.987 C 226.733 177.893,223.071 184.021,224.257 191.508 C 226.126 203.302,242.427 203.897,245.169 192.270 C 246.924 184.829,243.105 178.061,236.554 177.001 C 234.800 176.717,234.782 176.717,232.934 176.987 M260.017 177.009 C 253.407 178.113,249.551 185.881,251.905 193.354 C 255.124 203.577,269.975 202.944,272.355 192.482 C 274.500 183.051,268.547 175.585,260.017 177.009 M286.860 177.093 C 285.094 177.492,284.303 177.872,282.720 179.081 C 281.158 180.273,280.499 180.157,280.010 178.605 C 279.512 177.026,279.384 179.357,279.443 188.938 C 279.499 197.922,279.556 199.262,279.877 199.262 C 280.195 199.262,280.265 198.177,280.378 191.508 L 280.510 183.754 281.218 182.201 C 283.791 176.560,293.143 176.057,295.875 181.412 C 296.675 182.981,296.862 185.007,296.862 192.154 C 296.862 198.965,296.986 200.081,297.635 199.108 C 298.175 198.301,297.748 183.133,297.143 181.607 C 295.690 177.940,291.415 176.063,286.860 177.093 M238.630 178.429 C 247.168 182.206,246.310 197.214,237.425 199.500 C 229.925 201.429,223.947 195.146,225.206 186.657 C 226.226 179.773,232.699 175.806,238.630 178.429 M265.074 178.186 C 269.933 179.698,272.610 185.158,271.531 191.353 C 269.621 202.321,255.195 202.866,252.649 192.067 C 250.523 183.052,257.100 175.704,265.074 178.186 M145.759 178.295 C 145.277 178.876,145.481 199.262,145.969 199.262 C 146.388 199.262,146.670 178.572,146.257 178.158 C 146.141 178.042,145.918 178.104,145.759 178.295 " stroke="none" fill="#fcb02d" fill-rule="evenodd"></path><path id="path3" d="M194.585 51.329 C 193.908 51.503,192.966 51.657,192.492 51.672 C 191.261 51.712,190.946 51.970,191.227 52.710 C 191.372 53.091,191.371 53.474,191.225 53.736 C 190.945 54.236,190.899 54.233,192.123 53.792 C 192.665 53.597,193.994 53.430,195.077 53.421 C 197.042 53.404,197.045 53.403,196.455 52.950 C 195.974 52.580,195.893 52.353,196.018 51.725 C 196.103 51.301,196.092 50.967,195.994 50.983 C 195.896 50.999,195.262 51.155,194.585 51.329 M206.531 51.894 C 206.535 51.986,206.701 52.276,206.899 52.538 C 207.212 52.952,207.213 53.083,206.905 53.554 C 206.553 54.091,206.560 54.094,208.568 54.234 C 209.677 54.311,210.889 54.448,211.262 54.539 C 211.917 54.698,211.938 54.672,211.938 53.690 L 211.938 52.677 210.892 52.677 C 210.316 52.677,209.097 52.463,208.184 52.202 C 207.270 51.941,206.527 51.802,206.531 51.894 M186.338 52.185 C 186.038 52.379,186.070 52.424,186.509 52.427 C 186.805 52.429,187.116 52.320,187.200 52.185 C 187.394 51.871,186.823 51.871,186.338 52.185 M213.415 52.185 C 213.123 52.373,213.174 52.423,213.662 52.423 C 214.000 52.423,214.443 52.316,214.646 52.185 C 214.938 51.996,214.887 51.946,214.400 51.946 C 214.062 51.946,213.618 52.053,213.415 52.185 M223.015 54.081 C 223.015 54.168,223.195 54.436,223.414 54.678 C 224.197 55.544,223.678 56.366,222.334 56.387 C 218.413 56.449,218.552 57.024,222.523 57.173 C 225.212 57.274,226.005 57.593,227.390 59.127 C 227.895 59.686,228.851 60.707,229.514 61.395 C 230.527 62.446,230.566 62.469,229.755 61.538 C 227.308 58.733,227.133 58.335,227.956 57.458 L 228.466 56.916 227.279 56.477 C 226.626 56.235,225.400 55.562,224.554 54.981 C 223.708 54.400,223.015 53.995,223.015 54.081 M181.150 56.098 C 179.038 58.235,177.354 59.223,175.385 59.477 C 173.771 59.685,172.996 60.137,174.523 59.979 C 175.871 59.839,176.453 60.036,176.842 60.764 L 177.139 61.318 178.408 60.444 C 179.106 59.964,180.130 59.390,180.683 59.169 L 181.687 58.767 181.182 58.229 C 180.436 57.435,180.537 57.141,182.085 55.576 C 182.859 54.794,183.397 54.154,183.281 54.154 C 183.165 54.154,182.206 55.029,181.150 56.098 M235.736 62.492 C 235.809 62.771,236.023 63.127,236.211 63.284 C 236.767 63.745,236.642 62.925,236.079 62.415 C 235.623 62.003,235.609 62.006,235.736 62.492 M168.076 62.708 C 167.326 63.581,167.332 63.855,168.085 63.154 C 168.512 62.756,168.862 62.396,168.862 62.354 C 168.862 62.125,168.397 62.334,168.076 62.708 M236.808 64.421 C 236.804 64.721,236.551 65.202,236.246 65.491 L 235.692 66.017 236.308 66.412 C 236.646 66.629,237.615 67.486,238.462 68.316 C 239.433 69.269,240.000 69.677,240.000 69.424 C 240.000 68.843,240.498 68.431,241.199 68.431 C 241.730 68.431,241.660 68.333,240.658 67.669 C 239.576 66.953,238.022 65.475,237.187 64.369 C 236.819 63.882,236.816 63.882,236.808 64.421 M164.369 67.567 C 162.626 69.456,162.496 69.662,163.047 69.662 C 163.233 69.662,163.524 69.828,163.692 70.031 C 164.173 70.610,164.593 70.470,165.168 69.540 C 165.461 69.067,166.196 68.324,166.802 67.889 C 167.861 67.128,167.881 67.090,167.336 66.892 C 167.024 66.778,166.603 66.479,166.400 66.226 C 166.051 65.791,165.941 65.863,164.369 67.567 M206.277 71.149 C 177.062 73.322,164.595 109.841,186.087 130.293 C 198.419 142.028,215.232 142.857,230.646 132.489 C 234.406 129.959,234.471 130.617,229.762 123.432 C 224.241 115.004,224.815 115.369,220.835 117.756 C 211.948 123.086,205.545 123.128,199.262 117.896 C 182.554 103.986,202.320 79.603,219.897 92.440 C 222.697 94.485,222.594 94.524,226.429 89.945 C 229.854 85.855,229.777 85.473,224.883 82.213 C 205.762 69.477,180.780 83.649,181.736 106.689 C 182.558 126.479,203.814 139.149,221.483 130.381 C 224.456 128.906,224.814 127.985,223.123 126.161 C 222.339 125.314,221.678 125.375,219.413 126.502 C 212.229 130.078,203.040 129.373,196.185 124.722 C 185.444 117.435,182.838 102.000,190.576 91.507 C 197.338 82.337,209.440 79.351,219.692 84.325 C 222.606 85.738,223.129 86.160,222.933 86.939 C 222.615 88.206,221.883 88.177,219.044 86.786 C 197.406 76.181,177.960 103.543,195.240 120.280 C 202.133 126.955,210.902 128.074,219.956 123.432 C 223.327 121.703,223.176 121.652,225.688 125.379 C 228.335 129.308,228.413 129.140,222.602 132.032 C 206.557 140.018,186.889 131.925,181.095 114.954 C 171.502 86.852,204.529 63.580,228.067 81.856 C 231.227 84.310,231.646 84.404,232.956 82.953 C 234.217 81.558,234.093 81.054,232.058 79.305 C 225.121 73.341,215.924 70.431,206.277 71.149 M163.710 72.062 C 163.725 72.661,163.751 72.682,163.938 72.246 C 164.227 71.574,164.227 71.385,163.938 71.385 C 163.803 71.385,163.700 71.689,163.710 72.062 M215.508 72.379 C 221.411 73.407,227.476 76.259,231.692 79.992 C 232.995 81.145,233.143 81.761,232.326 82.630 C 231.532 83.476,231.184 83.362,228.857 81.495 C 212.031 67.995,187.117 75.207,180.318 95.547 C 171.695 121.343,198.426 144.665,222.892 132.691 C 229.378 129.517,229.372 129.529,226.340 124.990 C 223.378 120.555,223.699 120.668,219.737 122.665 C 210.072 127.538,200.766 125.889,194.283 118.154 C 180.129 101.269,198.860 77.831,218.767 87.515 C 222.027 89.101,222.080 89.107,223.163 88.025 C 224.675 86.512,223.976 85.551,219.938 83.592 C 205.477 76.573,187.677 85.789,185.620 101.360 C 185.185 104.653,185.168 105.172,185.410 107.683 C 187.010 124.287,204.980 134.597,219.551 127.271 C 221.889 126.095,222.082 126.075,222.762 126.939 C 224.614 129.294,217.286 132.277,209.600 132.297 C 187.536 132.356,174.747 107.938,187.318 89.754 C 195.936 77.288,212.930 74.538,225.537 83.569 C 228.866 85.954,228.866 85.870,225.479 89.853 C 222.374 93.504,222.726 93.402,219.862 91.481 C 212.277 86.395,203.471 87.006,197.427 93.039 C 186.647 103.796,194.244 122.326,209.477 122.433 C 213.627 122.462,215.564 121.804,221.109 118.478 C 222.860 117.428,223.911 116.940,224.213 117.036 C 224.927 117.262,232.674 129.051,232.574 129.759 C 232.405 130.956,224.316 135.698,219.815 137.237 C 206.447 141.811,191.551 137.100,182.861 125.549 C 164.331 100.918,185.106 67.083,215.508 72.379 M243.938 74.708 C 244.107 74.911,244.356 75.077,244.491 75.077 C 244.628 75.077,244.602 74.914,244.431 74.708 C 244.262 74.505,244.014 74.338,243.878 74.338 C 243.741 74.338,243.768 74.502,243.938 74.708 M248.000 76.308 C 247.916 76.443,247.633 76.554,247.370 76.554 C 246.719 76.554,246.761 76.712,247.729 77.893 C 248.189 78.455,248.707 79.408,248.881 80.011 C 249.282 81.404,249.225 81.360,249.826 80.759 C 250.499 80.086,250.655 80.107,251.684 81.010 C 252.781 81.973,252.803 81.758,251.731 80.555 C 251.278 80.046,250.442 78.828,249.874 77.846 C 248.905 76.174,248.359 75.726,248.000 76.308 M156.931 79.953 C 156.730 81.141,155.583 83.163,154.585 84.088 C 154.163 84.480,153.477 85.298,153.062 85.908 L 152.308 87.015 153.678 85.723 C 155.570 83.938,156.278 84.049,156.342 86.142 L 156.377 87.262 156.538 86.031 C 156.628 85.348,157.161 83.888,157.735 82.752 C 158.921 80.405,158.936 80.332,158.290 80.127 C 158.026 80.043,157.741 79.759,157.658 79.495 C 157.417 78.736,157.103 78.934,156.931 79.953 M251.007 90.096 C 251.145 90.626,251.569 91.020,251.569 90.619 C 251.569 90.199,251.278 89.600,251.074 89.600 C 250.965 89.600,250.935 89.823,251.007 90.096 M253.785 91.292 C 253.785 91.687,252.860 91.865,252.317 91.574 C 251.720 91.255,251.722 91.243,252.163 92.493 C 252.354 93.035,252.590 94.129,252.686 94.924 C 252.903 96.715,252.935 96.769,253.622 96.507 C 253.949 96.383,254.353 96.392,254.598 96.529 C 255.117 96.820,255.121 96.675,254.646 94.853 C 254.443 94.073,254.277 92.966,254.277 92.394 C 254.277 91.821,254.166 91.284,254.031 91.200 C 253.895 91.116,253.785 91.158,253.785 91.292 M152.302 94.696 C 151.961 95.037,151.789 95.055,151.239 94.804 C 150.443 94.441,150.552 94.251,150.192 96.615 C 150.027 97.698,149.825 98.972,149.743 99.446 C 149.596 100.300,149.599 100.304,150.100 99.857 C 150.499 99.502,150.710 99.463,151.102 99.673 C 151.375 99.819,151.649 99.938,151.712 99.938 C 151.774 99.938,151.867 99.080,151.918 98.031 C 151.974 96.877,152.179 95.791,152.437 95.283 C 152.929 94.315,152.883 94.115,152.302 94.696 M257.484 103.877 C 257.484 105.000,257.556 105.367,257.723 105.108 C 257.854 104.905,257.962 104.351,257.962 103.877 C 257.962 103.403,257.854 102.849,257.723 102.646 C 257.556 102.387,257.484 102.754,257.484 103.877 M148.694 103.938 C 148.685 104.729,148.786 105.354,148.923 105.354 C 149.220 105.354,149.220 103.706,148.923 103.015 C 148.771 102.661,148.707 102.920,148.694 103.938 M256.646 107.947 C 256.534 108.238,256.247 108.324,255.584 108.265 L 254.676 108.185 254.653 109.785 C 254.638 110.765,254.466 111.709,254.207 112.222 C 253.653 113.321,253.672 113.655,254.256 113.126 C 254.742 112.686,255.754 112.929,255.754 113.486 C 255.754 113.616,255.865 113.723,256.000 113.723 C 256.137 113.723,256.250 113.040,256.255 112.185 C 256.260 111.338,256.421 109.986,256.614 109.179 C 256.950 107.772,256.967 107.111,256.646 107.947 M153.257 111.227 C 153.114 111.453,152.769 111.517,152.193 111.424 C 151.530 111.316,151.370 111.361,151.472 111.627 C 151.762 112.382,152.088 113.921,152.242 115.261 C 152.394 116.585,152.436 116.658,152.902 116.409 C 153.176 116.263,153.680 116.213,154.023 116.299 C 154.553 116.432,154.620 116.389,154.472 116.013 C 154.310 115.605,154.069 114.412,153.636 111.877 C 153.519 111.193,153.403 110.995,153.257 111.227 M156.370 121.477 C 156.373 122.018,156.423 122.211,156.482 121.905 C 156.541 121.599,156.538 121.156,156.477 120.920 C 156.415 120.685,156.367 120.935,156.370 121.477 M252.860 122.117 C 251.708 123.224,251.465 123.352,250.644 123.281 L 249.723 123.200 248.716 125.292 L 247.708 127.385 248.408 127.812 C 248.793 128.047,249.108 128.358,249.108 128.503 C 249.108 128.649,249.218 128.699,249.354 128.615 C 249.489 128.532,249.600 128.215,249.600 127.911 C 249.600 126.979,250.778 124.931,252.258 123.287 C 254.721 120.552,254.951 120.105,252.860 122.117 M153.689 125.954 C 153.909 126.385,154.203 126.808,154.342 126.895 C 154.802 127.179,156.510 129.635,157.056 130.797 C 157.591 131.935,157.865 132.159,158.154 131.692 C 158.238 131.557,158.697 131.446,159.174 131.446 L 160.042 131.446 159.032 130.298 C 158.386 129.565,157.877 128.655,157.623 127.779 C 157.235 126.447,157.214 126.423,156.859 126.958 C 156.275 127.838,155.487 127.645,154.327 126.338 C 153.446 125.346,153.350 125.288,153.689 125.954 M163.928 134.708 C 164.948 135.795,165.169 135.990,165.169 135.805 C 165.169 135.766,164.643 135.239,164.000 134.636 L 162.831 133.538 163.928 134.708 M160.369 136.838 C 161.048 137.577,161.969 138.251,161.969 138.008 C 161.969 137.951,161.443 137.484,160.800 136.970 C 159.674 136.069,159.658 136.064,160.369 136.838 M241.355 138.336 C 241.014 138.876,240.286 139.616,239.737 139.979 C 238.853 140.564,238.789 140.667,239.184 140.875 C 239.430 141.004,239.810 141.335,240.030 141.609 C 240.426 142.104,240.433 142.103,241.015 141.422 C 241.337 141.045,242.121 140.239,242.758 139.630 L 243.917 138.523 243.055 137.939 C 241.973 137.204,242.087 137.177,241.355 138.336 M166.400 138.407 C 166.400 138.767,166.187 139.198,165.915 139.389 C 165.455 139.711,165.520 139.808,167.184 141.298 C 168.460 142.441,169.131 143.274,169.647 144.357 C 170.325 145.777,171.569 147.712,171.569 147.345 C 171.569 147.146,170.446 145.099,169.940 144.376 C 169.451 143.678,169.521 142.862,170.117 142.306 L 170.635 141.824 169.653 141.112 C 169.112 140.721,168.201 139.854,167.627 139.185 C 167.053 138.516,166.543 137.923,166.492 137.867 C 166.441 137.810,166.400 138.053,166.400 138.407 M174.523 144.369 C 174.692 144.572,174.940 144.738,175.076 144.738 C 175.213 144.738,175.186 144.575,175.015 144.369 C 174.847 144.166,174.598 144.000,174.463 144.000 C 174.325 144.000,174.352 144.163,174.523 144.369 M238.385 144.754 C 237.961 145.197,237.834 145.442,238.078 145.349 C 238.431 145.213,239.431 144.000,239.190 144.000 C 239.145 144.000,238.782 144.339,238.385 144.754 M176.000 145.554 C 176.000 145.596,176.360 145.956,176.800 146.354 L 177.600 147.077 176.877 146.277 C 176.203 145.531,176.000 145.364,176.000 145.554 M228.384 147.187 C 227.638 147.722,226.567 148.343,226.006 148.568 C 224.860 149.027,224.839 149.059,225.354 149.574 C 225.989 150.209,225.766 150.876,224.457 152.261 C 223.760 152.997,223.274 153.600,223.376 153.600 C 223.479 153.600,224.361 152.781,225.337 151.779 C 226.591 150.492,227.628 149.698,228.876 149.070 L 230.642 148.180 230.129 147.667 C 229.825 147.364,229.666 146.963,229.739 146.685 C 229.897 146.081,229.964 146.056,228.384 147.187 M231.508 147.938 C 231.125 148.103,231.245 148.154,232.047 148.167 C 232.614 148.177,233.147 148.074,233.231 147.938 C 233.416 147.639,232.204 147.639,231.508 147.938 M179.162 149.345 C 179.551 150.072,179.518 150.772,179.077 151.138 C 178.508 151.611,178.622 151.774,179.754 152.105 C 180.329 152.273,181.382 152.734,182.092 153.130 L 183.385 153.850 183.385 153.282 C 183.385 152.394,183.857 152.125,185.465 152.099 C 188.991 152.040,188.015 151.387,184.396 151.383 C 182.403 151.381,181.386 151.022,180.055 149.851 C 179.305 149.190,178.982 149.007,179.162 149.345 M193.816 154.239 C 193.844 155.103,193.787 155.183,193.034 155.341 C 192.587 155.435,192.144 155.596,192.049 155.699 C 191.954 155.802,192.265 155.805,192.738 155.707 C 194.029 155.438,196.788 155.552,198.030 155.926 C 199.070 156.239,199.116 156.233,198.887 155.806 C 198.755 155.558,198.646 155.073,198.646 154.729 C 198.646 154.057,198.502 153.993,196.431 153.739 C 195.822 153.665,194.977 153.537,194.554 153.456 C 193.799 153.310,193.786 153.324,193.816 154.239 M202.650 153.530 C 203.024 153.587,203.578 153.586,203.880 153.527 C 204.183 153.469,203.877 153.422,203.200 153.424 C 202.523 153.426,202.275 153.474,202.650 153.530 M214.277 154.229 C 213.465 154.544,212.400 154.808,211.910 154.816 C 211.035 154.831,211.021 154.847,211.021 155.842 C 211.021 156.986,210.763 156.953,214.031 156.232 C 215.495 155.909,215.507 155.899,215.441 155.092 C 215.404 154.644,215.501 154.125,215.656 153.939 C 215.811 153.753,215.896 153.613,215.846 153.628 C 215.795 153.644,215.089 153.914,214.277 154.229 M199.385 156.392 C 199.385 156.525,200.612 157.187,201.538 157.553 C 201.843 157.674,202.092 157.679,202.092 157.566 C 202.092 157.452,201.567 157.150,200.924 156.895 C 200.282 156.640,199.673 156.394,199.570 156.349 C 199.468 156.304,199.385 156.323,199.385 156.392 " stroke="none" fill="#ec96a1" fill-rule="evenodd"></path><path id="path4" d="M196.879 50.159 C 196.430 50.355,195.508 50.730,194.831 50.992 C 193.661 51.445,193.646 51.461,194.541 51.320 C 195.058 51.238,195.639 51.111,195.832 51.037 C 196.109 50.930,196.149 51.069,196.023 51.699 C 195.892 52.356,195.967 52.575,196.455 52.950 C 197.045 53.403,197.042 53.404,195.077 53.421 C 193.994 53.430,192.665 53.597,192.123 53.792 C 190.899 54.233,190.945 54.236,191.225 53.736 C 191.371 53.474,191.372 53.091,191.227 52.710 C 190.940 51.954,191.258 51.714,192.615 51.663 C 193.157 51.642,192.603 51.527,191.385 51.406 C 186.493 50.920,184.329 51.946,179.704 56.946 C 178.316 58.447,177.632 58.794,175.548 59.056 C 171.036 59.622,167.918 61.569,165.858 65.108 C 164.550 67.354,164.377 67.540,162.318 68.934 C 158.700 71.382,157.293 73.802,156.713 78.574 C 156.368 81.420,156.015 82.195,154.330 83.815 C 150.645 87.360,149.559 89.933,149.812 94.523 C 149.964 97.292,149.950 97.402,149.160 99.569 C 147.643 103.728,147.943 106.027,150.676 111.218 L 151.931 113.600 151.771 115.692 C 151.684 116.843,151.550 118.560,151.475 119.508 C 151.222 122.699,152.210 125.186,154.942 128.233 C 156.249 129.690,156.599 130.277,157.046 131.760 C 158.324 135.992,159.910 137.777,164.362 139.992 C 167.432 141.519,167.804 141.871,169.108 144.479 C 171.571 149.403,174.027 151.264,179.519 152.368 C 180.575 152.580,181.342 152.956,182.473 153.816 C 186.116 156.586,187.914 157.054,192.043 156.311 C 196.027 155.593,196.385 155.629,199.375 157.038 C 204.432 159.422,206.894 159.579,210.645 157.755 C 213.181 156.522,214.211 156.296,215.896 156.602 C 217.519 156.897,220.165 156.320,221.998 155.271 C 223.228 154.568,226.954 151.072,226.954 150.621 C 226.954 150.194,229.122 149.192,230.646 148.916 C 235.955 147.954,238.516 146.396,240.546 142.892 C 241.835 140.666,242.254 140.212,244.185 138.950 C 247.835 136.562,249.840 132.928,249.848 128.687 C 249.850 126.942,250.334 126.029,252.456 123.760 C 256.172 119.788,256.912 117.949,256.636 113.368 C 256.473 110.676,256.481 110.618,257.374 108.062 C 258.774 104.054,258.531 101.619,256.339 97.656 C 254.527 94.381,254.425 93.781,254.880 89.063 C 255.247 85.262,254.414 82.828,251.730 79.858 C 250.180 78.143,249.829 77.510,249.139 75.187 C 248.133 71.799,246.573 70.156,242.341 68.027 C 239.018 66.356,238.818 66.174,237.106 63.262 C 235.523 60.568,233.284 58.198,231.571 57.403 C 230.504 56.908,229.941 56.739,227.143 56.077 C 226.627 55.956,225.438 55.232,224.435 54.430 C 220.304 51.129,216.624 50.439,211.938 52.086 C 210.414 52.622,209.294 52.416,206.478 51.083 L 204.097 49.955 200.897 49.878 C 198.503 49.821,197.491 49.892,196.879 50.159 M204.308 51.447 C 208.017 53.021,207.141 53.839,202.001 53.601 C 197.106 53.374,194.849 51.789,198.205 50.936 C 199.689 50.559,202.836 50.822,204.308 51.447 M210.892 52.677 L 211.938 52.677 211.938 53.690 C 211.938 54.672,211.917 54.698,211.262 54.539 C 210.889 54.448,209.677 54.311,208.568 54.234 C 206.560 54.094,206.553 54.091,206.905 53.554 C 207.213 53.083,207.212 52.952,206.899 52.538 C 206.301 51.747,206.454 51.707,208.184 52.202 C 209.097 52.463,210.316 52.677,210.892 52.677 M187.200 52.185 C 187.116 52.320,186.805 52.429,186.509 52.427 C 186.070 52.424,186.038 52.379,186.338 52.185 C 186.823 51.871,187.394 51.871,187.200 52.185 M214.646 52.185 C 214.443 52.316,214.000 52.423,213.662 52.423 C 213.174 52.423,213.123 52.373,213.415 52.185 C 213.618 52.053,214.062 51.946,214.400 51.946 C 214.887 51.946,214.938 51.996,214.646 52.185 M190.000 52.585 C 191.600 52.905,190.768 53.853,186.954 56.057 C 182.407 58.685,180.005 58.524,182.650 55.769 C 185.145 53.171,187.604 52.105,190.000 52.585 M220.711 53.320 C 222.267 54.108,223.384 55.203,223.178 55.739 C 222.666 57.075,212.431 55.237,212.431 53.810 C 212.431 52.391,218.201 52.050,220.711 53.320 M197.292 54.040 C 199.783 54.943,202.919 55.207,205.956 54.767 C 209.223 54.295,209.768 54.358,212.283 55.504 C 214.992 56.739,217.878 57.353,221.004 57.360 C 224.847 57.368,225.367 57.536,226.829 59.243 C 229.831 62.747,231.936 64.592,234.343 65.828 C 237.610 67.505,237.816 67.679,239.390 70.094 C 241.072 72.673,242.763 74.479,244.923 76.002 C 248.239 78.341,248.519 78.778,248.863 82.143 C 249.318 86.598,249.800 88.582,251.005 90.954 C 251.623 92.172,252.214 93.502,252.317 93.908 C 252.453 94.447,252.510 94.505,252.529 94.123 C 252.543 93.836,252.388 93.129,252.185 92.554 C 251.720 91.236,251.717 91.253,252.317 91.574 C 252.860 91.865,253.785 91.687,253.785 91.292 C 253.785 91.158,253.895 91.116,254.031 91.200 C 254.166 91.284,254.277 91.821,254.277 92.394 C 254.277 92.966,254.443 94.073,254.646 94.853 C 255.121 96.675,255.117 96.820,254.598 96.529 C 254.359 96.395,253.948 96.384,253.638 96.501 C 252.945 96.765,252.808 96.611,252.767 95.528 C 252.748 95.043,252.610 95.588,252.459 96.738 C 251.963 100.520,252.482 104.306,253.993 107.931 C 254.781 109.823,254.555 110.819,252.581 114.153 C 250.602 117.496,249.737 119.445,249.493 121.108 C 248.956 124.776,248.657 125.436,246.414 127.895 C 244.547 129.944,243.300 132.106,242.376 134.899 C 241.134 138.650,240.644 139.294,238.277 140.285 C 233.759 142.177,229.708 144.675,229.258 145.847 C 228.856 146.894,226.869 148.023,224.202 148.721 C 220.998 149.558,219.463 150.296,216.492 152.428 C 213.341 154.688,213.041 154.758,209.927 153.952 C 206.076 152.956,203.644 152.728,200.862 153.101 C 196.394 153.701,196.163 153.696,194.445 152.983 C 191.141 151.611,189.867 151.349,186.092 151.268 C 184.129 151.226,183.077 151.233,183.754 151.285 C 188.318 151.633,189.169 152.037,185.465 152.099 C 183.857 152.125,183.385 152.394,183.385 153.282 L 183.385 153.850 182.092 153.130 C 181.382 152.734,180.329 152.273,179.754 152.105 C 178.622 151.774,178.508 151.611,179.077 151.138 C 179.516 150.774,179.551 150.079,179.169 149.338 C 178.950 148.913,179.066 148.960,179.723 149.563 C 180.843 150.591,181.693 151.140,182.147 151.129 C 182.354 151.124,182.184 150.972,181.770 150.791 C 181.339 150.604,180.253 149.505,179.231 148.223 C 176.652 144.990,174.749 143.346,171.931 141.921 C 168.901 140.389,168.356 139.924,167.088 137.790 C 165.711 135.473,164.148 133.811,161.343 131.684 C 158.515 129.540,158.097 129.037,157.912 127.552 C 157.066 120.773,156.789 119.568,155.493 117.046 L 154.228 114.585 154.203 109.662 L 154.178 104.738 153.150 101.736 C 151.660 97.380,151.657 97.403,154.380 92.923 C 156.102 90.091,156.723 88.512,157.147 85.885 C 157.574 83.241,158.175 82.053,160.184 79.881 C 161.830 78.102,163.807 74.494,164.435 72.124 C 165.134 69.487,165.975 68.546,168.615 67.446 C 172.725 65.735,177.231 62.900,177.231 62.026 C 177.231 61.438,179.993 59.591,181.113 59.430 C 183.903 59.029,186.338 57.996,189.785 55.753 C 191.071 54.915,192.345 54.106,192.615 53.953 C 193.310 53.563,196.120 53.615,197.292 54.040 M227.279 56.477 L 228.466 56.916 227.956 57.458 C 227.133 58.335,227.308 58.733,229.755 61.538 C 230.566 62.469,230.527 62.446,229.514 61.395 C 228.851 60.707,227.895 59.686,227.390 59.127 C 226.005 57.593,225.212 57.274,222.523 57.173 C 218.552 57.024,218.413 56.449,222.334 56.387 C 223.678 56.366,224.197 55.544,223.414 54.678 C 222.648 53.832,223.028 53.933,224.554 54.981 C 225.400 55.562,226.626 56.235,227.279 56.477 M182.085 55.576 C 180.537 57.141,180.436 57.435,181.182 58.229 L 181.687 58.767 180.683 59.169 C 180.130 59.390,179.106 59.964,178.408 60.444 L 177.139 61.318 176.842 60.764 C 176.453 60.036,175.871 59.839,174.523 59.979 C 172.996 60.137,173.771 59.685,175.385 59.477 C 177.354 59.223,179.038 58.235,181.150 56.098 C 182.206 55.029,183.165 54.154,183.281 54.154 C 183.397 54.154,182.859 54.794,182.085 55.576 M230.817 58.446 C 233.905 59.884,237.865 65.481,235.358 64.865 C 233.696 64.456,231.027 62.361,229.132 59.978 C 227.458 57.873,228.179 57.218,230.817 58.446 M175.989 60.542 C 176.846 61.084,174.238 63.568,171.468 64.848 C 166.999 66.913,166.379 66.944,167.354 65.055 C 168.703 62.442,174.337 59.497,175.989 60.542 M236.554 63.207 C 236.554 63.721,235.910 63.159,235.736 62.492 C 235.609 62.006,235.623 62.003,236.079 62.415 C 236.340 62.652,236.554 63.008,236.554 63.207 M168.862 62.354 C 168.862 62.396,168.512 62.756,168.085 63.154 C 167.332 63.855,167.326 63.581,168.076 62.708 C 168.397 62.334,168.862 62.125,168.862 62.354 M238.534 65.885 C 239.070 66.447,240.025 67.250,240.658 67.669 C 241.660 68.333,241.730 68.431,241.199 68.431 C 240.498 68.431,240.000 68.843,240.000 69.424 C 240.000 69.677,239.433 69.269,238.462 68.316 C 237.615 67.486,236.646 66.629,236.308 66.412 L 235.692 66.017 236.246 65.491 C 236.551 65.202,236.804 64.721,236.808 64.421 C 236.816 63.882,236.819 63.882,237.187 64.369 C 237.392 64.640,237.997 65.322,238.534 65.885 M167.336 66.892 C 167.881 67.090,167.861 67.128,166.802 67.889 C 166.196 68.324,165.461 69.067,165.168 69.540 C 164.593 70.470,164.173 70.610,163.692 70.031 C 163.524 69.828,163.233 69.662,163.047 69.662 C 162.496 69.662,162.626 69.456,164.369 67.567 C 165.941 65.863,166.051 65.791,166.400 66.226 C 166.603 66.479,167.024 66.778,167.336 66.892 M242.654 69.516 C 245.335 70.884,247.394 73.092,247.778 75.012 C 248.127 76.759,246.726 76.192,243.588 73.316 C 240.158 70.173,239.615 67.965,242.654 69.516 M163.361 70.534 C 163.569 71.074,162.301 74.658,161.298 76.370 C 158.952 80.373,157.419 80.585,158.191 76.799 C 158.911 73.269,162.665 68.720,163.361 70.534 M205.964 71.070 C 206.401 71.124,207.176 71.125,207.687 71.072 C 208.198 71.019,207.840 70.974,206.892 70.973 C 205.945 70.972,205.527 71.016,205.964 71.070 M210.641 71.070 C 211.078 71.124,211.853 71.125,212.364 71.072 C 212.874 71.019,212.517 70.974,211.569 70.973 C 210.622 70.972,210.204 71.016,210.641 71.070 M203.631 71.308 C 203.868 71.370,204.255 71.370,204.492 71.308 C 204.729 71.246,204.535 71.196,204.062 71.196 C 203.588 71.196,203.394 71.246,203.631 71.308 M214.215 71.308 C 214.452 71.370,214.840 71.370,215.077 71.308 C 215.314 71.246,215.120 71.196,214.646 71.196 C 214.172 71.196,213.978 71.246,214.215 71.308 M164.167 71.569 C 164.100 72.291,163.726 72.693,163.710 72.062 C 163.700 71.689,163.803 71.385,163.938 71.385 C 164.074 71.385,164.177 71.468,164.167 71.569 M219.569 72.492 C 220.693 72.925,221.135 72.919,220.185 72.483 C 219.778 72.297,219.280 72.149,219.077 72.153 C 218.874 72.157,219.095 72.310,219.569 72.492 M195.938 73.477 C 195.600 73.670,195.434 73.829,195.569 73.829 C 195.705 73.829,196.092 73.670,196.431 73.477 C 196.769 73.283,196.935 73.125,196.800 73.125 C 196.665 73.125,196.277 73.283,195.938 73.477 M244.431 74.708 C 244.602 74.914,244.628 75.077,244.491 75.077 C 244.356 75.077,244.107 74.911,243.938 74.708 C 243.768 74.502,243.741 74.338,243.878 74.338 C 244.014 74.338,244.262 74.505,244.431 74.708 M225.723 74.944 C 225.723 75.012,226.166 75.293,226.708 75.569 C 227.249 75.846,227.692 76.016,227.692 75.948 C 227.692 75.881,227.249 75.599,226.708 75.323 C 226.166 75.047,225.723 74.876,225.723 74.944 M208.062 75.505 C 208.840 75.554,210.114 75.554,210.892 75.505 C 211.671 75.456,211.034 75.416,209.477 75.416 C 207.920 75.416,207.283 75.456,208.062 75.505 M204.862 75.739 C 205.098 75.801,205.486 75.801,205.723 75.739 C 205.960 75.677,205.766 75.626,205.292 75.626 C 204.818 75.626,204.625 75.677,204.862 75.739 M189.516 77.085 C 187.563 78.444,183.098 82.765,182.178 84.185 C 181.662 84.981,181.681 84.972,182.434 84.062 C 184.860 81.131,187.802 78.457,191.019 76.259 C 191.356 76.029,191.565 75.835,191.485 75.828 C 191.404 75.821,190.518 76.387,189.516 77.085 M215.138 76.062 C 215.477 76.170,215.975 76.259,216.246 76.259 C 216.636 76.259,216.610 76.218,216.123 76.062 C 215.785 75.953,215.286 75.864,215.015 75.864 C 214.626 75.864,214.651 75.905,215.138 76.062 M249.874 77.846 C 250.442 78.828,251.278 80.046,251.731 80.555 C 252.803 81.758,252.781 81.973,251.684 81.010 C 250.655 80.107,250.499 80.086,249.826 80.759 C 249.225 81.360,249.282 81.404,248.881 80.011 C 248.707 79.408,248.189 78.455,247.729 77.893 C 246.761 76.712,246.719 76.554,247.370 76.554 C 247.633 76.554,247.916 76.443,248.000 76.308 C 248.359 75.726,248.905 76.174,249.874 77.846 M229.415 77.123 C 229.415 77.184,229.822 77.544,230.319 77.923 C 230.816 78.302,231.145 78.487,231.050 78.333 C 230.855 78.018,229.415 76.952,229.415 77.123 M207.077 77.469 C 207.449 77.525,208.058 77.525,208.431 77.469 C 208.803 77.412,208.498 77.366,207.754 77.366 C 207.009 77.366,206.705 77.412,207.077 77.469 M210.892 77.466 C 211.197 77.525,211.695 77.525,212.000 77.466 C 212.305 77.407,212.055 77.359,211.446 77.359 C 210.837 77.359,210.588 77.407,210.892 77.466 M196.123 78.416 C 195.480 78.751,194.954 79.080,194.954 79.147 C 194.954 79.257,197.391 78.106,197.641 77.878 C 197.946 77.600,197.145 77.884,196.123 78.416 M202.708 78.031 C 202.080 78.300,202.728 78.300,203.569 78.031 C 204.064 77.872,204.088 77.832,203.692 77.826 C 203.422 77.822,202.978 77.914,202.708 78.031 M221.805 78.124 C 222.057 78.351,224.000 79.259,224.000 79.148 C 224.000 79.009,222.142 78.031,221.876 78.031 C 221.781 78.031,221.749 78.073,221.805 78.124 M232.268 79.424 C 232.822 79.944,233.455 80.702,233.674 81.108 C 233.893 81.514,234.073 81.735,234.074 81.600 C 234.076 81.080,233.431 80.238,232.368 79.376 L 231.262 78.478 232.268 79.424 M157.658 79.495 C 157.741 79.759,158.026 80.043,158.290 80.127 C 158.936 80.332,158.921 80.405,157.735 82.752 C 157.161 83.888,156.628 85.348,156.538 86.031 L 156.377 87.262 156.342 86.142 C 156.278 84.049,155.570 83.938,153.678 85.723 L 152.308 87.015 153.062 85.908 C 153.477 85.298,154.163 84.480,154.585 84.088 C 155.583 83.163,156.730 81.141,156.931 79.953 C 157.103 78.934,157.417 78.736,157.658 79.495 M219.836 79.355 C 220.087 79.585,223.015 80.979,223.015 80.869 C 223.015 80.731,220.172 79.262,219.904 79.262 C 219.810 79.262,219.779 79.304,219.836 79.355 M224.738 79.584 C 224.738 79.641,225.209 79.999,225.785 80.378 C 226.360 80.758,226.701 80.911,226.542 80.719 C 226.237 80.349,224.738 79.407,224.738 79.584 M191.569 81.246 C 190.858 81.791,190.277 82.292,190.277 82.358 C 190.277 82.424,190.886 82.018,191.631 81.455 C 192.806 80.568,193.164 80.234,192.923 80.250 C 192.889 80.252,192.280 80.701,191.569 81.246 M251.617 81.672 C 253.370 83.612,254.250 87.955,253.420 90.570 C 252.940 92.082,251.258 89.555,250.677 86.448 C 249.679 81.121,249.937 79.812,251.617 81.672 M223.262 81.061 C 223.262 81.118,223.732 81.476,224.308 81.855 C 224.883 82.235,225.224 82.388,225.065 82.196 C 224.760 81.826,223.262 80.884,223.262 81.061 M193.044 82.560 C 192.235 83.156,190.866 84.332,190.002 85.174 L 188.431 86.706 190.031 85.277 C 190.911 84.491,192.295 83.360,193.108 82.763 C 194.764 81.545,194.845 81.477,194.653 81.477 C 194.577 81.477,193.854 81.964,193.044 82.560 M227.938 81.819 C 227.938 82.220,230.778 84.185,231.357 84.185 C 231.968 84.185,233.846 82.644,233.846 82.143 C 233.846 82.047,233.446 82.411,232.956 82.953 C 231.754 84.284,231.085 84.259,229.315 82.817 C 228.558 82.201,227.938 81.751,227.938 81.819 M206.585 82.146 C 206.957 82.202,207.566 82.202,207.938 82.146 C 208.311 82.089,208.006 82.043,207.262 82.043 C 206.517 82.043,206.212 82.089,206.585 82.146 M211.019 82.146 C 211.393 82.202,211.947 82.201,212.250 82.143 C 212.552 82.084,212.246 82.038,211.569 82.040 C 210.892 82.041,210.645 82.089,211.019 82.146 M188.178 84.246 L 186.462 86.031 188.246 84.314 C 189.904 82.720,190.143 82.462,189.963 82.462 C 189.925 82.462,189.122 83.265,188.178 84.246 M203.200 82.708 C 202.890 82.841,202.844 82.919,203.077 82.919 C 203.280 82.919,203.668 82.824,203.938 82.708 C 204.249 82.574,204.294 82.496,204.062 82.496 C 203.858 82.496,203.471 82.591,203.200 82.708 M217.600 83.569 C 217.938 83.763,218.326 83.921,218.462 83.921 C 218.597 83.921,218.431 83.763,218.092 83.569 C 217.754 83.376,217.366 83.217,217.231 83.217 C 217.095 83.217,217.262 83.376,217.600 83.569 M227.859 84.431 C 228.450 85.067,228.932 85.853,228.991 86.277 L 229.095 87.015 229.132 86.267 C 229.162 85.668,228.935 85.298,228.000 84.420 L 226.831 83.323 227.859 84.431 M218.851 84.019 C 218.908 84.064,219.729 84.510,220.677 85.011 C 221.625 85.511,222.178 85.743,221.908 85.525 C 221.369 85.093,219.197 83.938,218.921 83.938 C 218.826 83.938,218.795 83.975,218.851 84.019 M208.308 84.366 C 208.951 84.416,210.003 84.416,210.646 84.366 C 211.289 84.315,210.763 84.273,209.477 84.273 C 208.191 84.273,207.665 84.315,208.308 84.366 M213.908 84.923 C 214.749 85.193,215.396 85.193,214.769 84.923 C 214.498 84.807,214.055 84.715,213.785 84.719 C 213.389 84.725,213.413 84.765,213.908 84.923 M196.507 85.779 C 195.808 86.250,195.161 86.756,195.069 86.905 C 194.926 87.137,197.109 85.700,197.772 85.126 C 198.306 84.663,197.696 84.978,196.507 85.779 M155.815 86.171 C 155.815 87.396,154.706 90.128,153.272 92.437 C 151.606 95.119,150.615 94.813,150.999 91.735 C 151.444 88.174,155.815 83.124,155.815 86.171 M219.309 86.893 C 220.316 87.427,221.178 87.828,221.223 87.782 C 221.328 87.678,217.972 85.905,217.687 85.914 C 217.571 85.918,218.301 86.358,219.309 86.893 M222.691 86.373 C 222.778 86.707,222.662 87.095,222.383 87.403 C 221.983 87.845,221.980 87.881,222.354 87.737 C 222.870 87.539,223.173 86.460,222.814 86.100 C 222.627 85.913,222.591 85.992,222.691 86.373 M187.497 87.938 C 186.711 88.913,185.573 90.614,185.891 90.338 C 186.160 90.106,188.534 86.892,188.437 86.892 C 188.384 86.892,187.961 87.363,187.497 87.938 M198.012 87.570 C 196.333 88.702,194.788 90.065,193.812 91.278 C 193.156 92.093,193.391 91.917,194.616 90.676 C 195.569 89.710,196.977 88.504,197.744 87.995 C 198.954 87.191,199.320 86.889,199.077 86.893 C 199.043 86.894,198.564 87.199,198.012 87.570 M192.855 88.923 L 191.138 90.708 192.923 88.991 C 193.905 88.047,194.708 87.244,194.708 87.207 C 194.708 87.026,194.449 87.266,192.855 88.923 M227.676 88.431 C 227.083 89.142,226.793 89.568,227.031 89.378 C 227.510 88.996,229.026 87.138,228.859 87.138 C 228.801 87.138,228.269 87.720,227.676 88.431 M184.862 88.123 C 184.572 88.529,184.391 88.862,184.459 88.862 C 184.526 88.862,184.818 88.529,185.108 88.123 C 185.397 87.717,185.578 87.385,185.510 87.385 C 185.443 87.385,185.151 87.717,184.862 88.123 M178.572 89.871 C 178.088 90.833,177.732 91.660,177.781 91.709 C 177.830 91.758,178.279 90.971,178.779 89.961 C 179.279 88.950,179.635 88.123,179.570 88.123 C 179.505 88.123,179.056 88.910,178.572 89.871 M207.203 89.036 C 207.509 89.095,207.952 89.092,208.187 89.031 C 208.423 88.969,208.172 88.921,207.631 88.924 C 207.089 88.926,206.897 88.977,207.203 89.036 M210.895 89.036 C 211.201 89.095,211.644 89.092,211.880 89.031 C 212.115 88.969,211.865 88.921,211.323 88.924 C 210.782 88.926,210.589 88.977,210.895 89.036 M251.420 89.989 C 251.634 90.548,251.604 90.881,251.353 90.726 C 251.061 90.546,250.826 89.600,251.074 89.600 C 251.182 89.600,251.338 89.775,251.420 89.989 M225.831 90.646 L 225.108 91.446 225.908 90.723 C 226.348 90.326,226.708 89.966,226.708 89.923 C 226.708 89.733,226.505 89.900,225.831 90.646 M182.634 91.839 C 182.351 92.394,182.162 92.890,182.213 92.942 C 182.265 92.993,182.548 92.539,182.843 91.933 C 183.514 90.552,183.332 90.471,182.634 91.839 M217.846 91.153 C 217.846 91.211,218.317 91.568,218.892 91.948 C 219.468 92.327,219.809 92.480,219.650 92.288 C 219.344 91.918,217.846 90.976,217.846 91.153 M184.234 93.071 C 183.884 93.761,183.639 94.367,183.689 94.418 C 183.740 94.468,184.078 93.903,184.442 93.162 C 184.805 92.422,185.050 91.815,184.986 91.815 C 184.922 91.815,184.584 92.380,184.234 93.071 M189.836 92.492 C 189.575 92.865,189.232 93.418,189.072 93.723 C 188.554 94.714,188.954 94.307,189.738 93.046 C 190.557 91.729,190.620 91.374,189.836 92.492 M198.400 93.088 C 197.755 93.674,197.601 93.886,198.031 93.597 C 198.710 93.139,199.839 92.048,199.607 92.072 C 199.553 92.078,199.009 92.535,198.400 93.088 M177.012 93.320 C 176.860 93.755,176.779 94.154,176.832 94.206 C 176.885 94.259,177.052 93.946,177.203 93.511 C 177.355 93.076,177.436 92.677,177.383 92.624 C 177.331 92.572,177.164 92.885,177.012 93.320 M192.045 93.600 C 191.275 94.723,190.027 97.091,190.037 97.407 C 190.041 97.513,190.456 96.824,190.960 95.877 C 191.464 94.929,192.134 93.793,192.448 93.353 C 192.761 92.914,192.961 92.554,192.890 92.554 C 192.820 92.554,192.439 93.025,192.045 93.600 M220.287 92.889 C 220.615 93.293,221.538 93.903,221.538 93.716 C 221.538 93.669,221.178 93.368,220.738 93.045 C 220.243 92.683,220.071 92.624,220.287 92.889 M223.580 93.319 C 223.430 93.469,222.937 93.679,222.484 93.786 C 221.748 93.960,221.730 93.983,222.311 94.006 C 222.828 94.026,224.487 93.085,223.988 93.054 C 223.913 93.050,223.730 93.169,223.580 93.319 M152.437 95.283 C 152.179 95.791,151.974 96.877,151.918 98.031 C 151.867 99.080,151.774 99.938,151.712 99.938 C 151.649 99.938,151.375 99.819,151.102 99.673 C 150.710 99.463,150.499 99.502,150.100 99.857 C 149.599 100.304,149.596 100.300,149.743 99.446 C 149.825 98.972,150.027 97.698,150.192 96.615 C 150.552 94.251,150.443 94.441,151.239 94.804 C 151.789 95.055,151.961 95.037,152.302 94.696 C 152.883 94.115,152.929 94.315,152.437 95.283 M196.770 94.831 C 196.043 95.660,195.618 96.246,195.744 96.246 C 195.806 96.246,196.212 95.803,196.647 95.262 C 197.492 94.210,197.578 93.909,196.770 94.831 M187.855 96.134 C 187.443 97.039,187.522 97.232,187.968 96.409 C 188.176 96.025,188.300 95.664,188.244 95.608 C 188.188 95.552,188.013 95.788,187.855 96.134 M194.818 97.748 C 194.469 98.438,194.224 99.044,194.274 99.095 C 194.324 99.145,194.663 98.580,195.026 97.839 C 195.390 97.098,195.635 96.492,195.571 96.492 C 195.507 96.492,195.168 97.057,194.818 97.748 M254.810 97.415 C 255.141 97.808,255.902 99.464,256.750 101.639 C 257.665 103.989,256.440 108.866,255.284 107.473 C 253.678 105.538,252.719 96.985,254.108 96.985 C 254.294 96.985,254.610 97.178,254.810 97.415 M151.409 100.722 C 153.029 103.749,153.771 111.227,152.425 110.967 C 151.319 110.754,149.412 106.221,149.421 103.823 C 149.430 101.202,150.648 99.301,151.409 100.722 M175.072 102.154 C 175.072 102.628,175.123 102.822,175.185 102.585 C 175.247 102.348,175.247 101.960,175.185 101.723 C 175.123 101.486,175.072 101.680,175.072 102.154 M186.189 105.354 C 186.189 107.182,186.227 107.929,186.275 107.015 C 186.322 106.102,186.322 104.606,186.275 103.692 C 186.227 102.778,186.189 103.526,186.189 105.354 M181.509 105.231 C 181.510 106.855,181.550 107.488,181.598 106.637 C 181.646 105.785,181.646 104.456,181.597 103.683 C 181.548 102.910,181.509 103.606,181.509 105.231 M257.962 103.877 C 257.962 104.351,257.854 104.905,257.723 105.108 C 257.556 105.367,257.484 105.000,257.484 103.877 C 257.484 102.754,257.556 102.387,257.723 102.646 C 257.854 102.849,257.962 103.403,257.962 103.877 M149.152 104.431 C 149.161 104.938,149.058 105.354,148.923 105.354 C 148.786 105.354,148.685 104.729,148.694 103.938 C 148.714 102.350,149.121 102.789,149.152 104.431 M179.535 105.354 C 179.535 106.640,179.576 107.166,179.627 106.523 C 179.678 105.880,179.678 104.828,179.627 104.185 C 179.576 103.542,179.535 104.068,179.535 105.354 M188.388 105.231 C 188.390 106.178,188.434 106.536,188.487 106.025 C 188.541 105.515,188.540 104.739,188.485 104.302 C 188.431 103.865,188.387 104.283,188.388 105.231 M193.065 105.231 C 193.066 106.178,193.111 106.536,193.164 106.025 C 193.218 105.515,193.217 104.739,193.162 104.302 C 193.108 103.865,193.064 104.283,193.065 105.231 M174.848 105.354 C 174.848 106.234,174.893 106.594,174.947 106.154 C 175.002 105.714,175.002 104.994,174.947 104.554 C 174.893 104.114,174.848 104.474,174.848 105.354 M256.614 109.179 C 256.421 109.986,256.260 111.338,256.255 112.185 C 256.250 113.040,256.137 113.723,256.000 113.723 C 255.865 113.723,255.754 113.616,255.754 113.486 C 255.754 112.929,254.742 112.686,254.256 113.126 C 253.672 113.655,253.653 113.321,254.207 112.222 C 254.466 111.709,254.638 110.765,254.653 109.785 L 254.676 108.185 255.584 108.265 C 256.247 108.324,256.534 108.238,256.646 107.947 C 256.967 107.111,256.950 107.772,256.614 109.179 M175.072 108.554 C 175.072 109.028,175.123 109.222,175.185 108.985 C 175.247 108.748,175.247 108.360,175.185 108.123 C 175.123 107.886,175.072 108.080,175.072 108.554 M188.835 109.292 C 188.835 109.495,188.930 109.883,189.046 110.154 C 189.179 110.464,189.258 110.510,189.258 110.277 C 189.258 110.074,189.163 109.686,189.046 109.415 C 188.913 109.105,188.835 109.060,188.835 109.292 M181.950 110.892 C 181.946 111.163,182.037 111.606,182.154 111.877 C 182.423 112.504,182.423 111.857,182.154 111.015 C 181.995 110.521,181.955 110.497,181.950 110.892 M154.050 114.215 C 154.186 114.960,154.375 115.769,154.472 116.013 C 154.620 116.389,154.553 116.432,154.023 116.299 C 153.680 116.213,153.176 116.263,152.902 116.409 C 152.436 116.658,152.394 116.585,152.242 115.261 C 152.088 113.921,151.762 112.382,151.472 111.627 C 151.370 111.361,151.530 111.316,152.193 111.424 C 152.769 111.517,153.114 111.453,153.257 111.227 C 153.403 110.995,153.519 111.193,153.636 111.877 C 153.729 112.418,153.915 113.471,154.050 114.215 M194.215 111.107 C 194.215 111.373,195.193 113.231,195.333 113.231 C 195.401 113.231,195.219 112.760,194.929 112.185 C 194.358 111.053,194.215 110.838,194.215 111.107 M186.865 111.508 C 186.865 111.711,186.961 112.098,187.077 112.369 C 187.210 112.680,187.288 112.725,187.288 112.492 C 187.288 112.289,187.193 111.902,187.077 111.631 C 186.944 111.320,186.865 111.275,186.865 111.508 M190.277 113.569 C 190.277 113.835,191.255 115.692,191.395 115.692 C 191.462 115.692,191.280 115.222,190.990 114.646 C 190.420 113.515,190.277 113.299,190.277 113.569 M195.864 114.165 C 196.106 114.611,196.632 115.276,197.033 115.642 L 197.762 116.308 197.035 115.440 C 196.635 114.963,196.109 114.299,195.866 113.963 C 195.441 113.376,195.441 113.384,195.864 114.165 M255.413 114.118 C 255.984 116.392,254.903 119.291,252.600 121.662 C 249.764 124.581,250.012 120.812,252.984 115.815 C 254.469 113.318,255.102 112.877,255.413 114.118 M222.585 116.459 C 222.145 116.741,221.785 117.025,221.785 117.090 C 221.785 117.156,222.158 116.979,222.614 116.697 C 223.727 116.009,224.441 116.052,225.340 116.862 L 226.092 117.538 225.369 116.738 C 224.518 115.796,223.741 115.718,222.585 116.459 M183.631 116.275 C 183.631 116.542,184.854 118.892,184.993 118.892 C 185.061 118.892,184.824 118.311,184.467 117.600 C 183.780 116.233,183.631 115.996,183.631 116.275 M181.662 116.519 C 181.662 116.786,183.376 120.123,183.514 120.123 C 183.582 120.123,183.235 119.320,182.743 118.338 C 181.821 116.497,181.662 116.228,181.662 116.519 M189.330 117.429 C 189.638 117.979,190.041 118.553,190.225 118.705 C 190.408 118.857,190.202 118.408,189.766 117.706 C 188.825 116.193,188.529 116.006,189.330 117.429 M197.662 116.485 C 197.662 116.533,198.188 117.005,198.831 117.534 C 199.474 118.062,199.778 118.240,199.508 117.928 C 199.029 117.378,197.662 116.309,197.662 116.485 M154.147 117.108 C 154.714 117.756,155.557 119.824,155.718 120.962 C 155.796 121.516,156.023 122.885,156.223 124.003 C 156.883 127.709,155.437 127.948,153.629 124.431 C 152.201 121.655,152.644 115.391,154.147 117.108 M177.494 118.277 C 177.494 118.412,177.653 118.800,177.846 119.138 C 178.040 119.477,178.198 119.643,178.198 119.508 C 178.198 119.372,178.040 118.985,177.846 118.646 C 177.653 118.308,177.494 118.142,177.494 118.277 M194.831 120.123 C 195.771 121.071,196.596 121.846,196.664 121.846 C 196.731 121.846,196.017 121.071,195.077 120.123 C 194.136 119.175,193.312 118.400,193.244 118.400 C 193.176 118.400,193.890 119.175,194.831 120.123 M218.277 119.033 C 217.357 119.532,217.413 119.740,218.338 119.262 C 218.745 119.052,219.077 118.827,219.077 118.763 C 219.077 118.605,219.050 118.613,218.277 119.033 M190.938 119.754 C 192.167 121.497,195.973 124.788,197.908 125.782 C 198.846 126.263,198.458 125.955,196.396 124.579 C 195.362 123.888,193.594 122.354,192.467 121.170 C 191.340 119.985,190.652 119.348,190.938 119.754 M201.600 119.506 C 201.600 119.673,203.599 120.667,203.711 120.556 C 203.762 120.504,203.309 120.221,202.702 119.927 C 202.096 119.632,201.600 119.443,201.600 119.506 M178.735 120.923 C 179.382 122.200,181.359 125.292,181.529 125.292 C 181.596 125.292,181.170 124.545,180.581 123.631 C 179.993 122.717,179.273 121.498,178.981 120.923 C 178.690 120.348,178.396 119.877,178.328 119.877 C 178.261 119.877,178.444 120.348,178.735 120.923 M215.877 120.246 C 215.538 120.440,215.372 120.598,215.508 120.598 C 215.643 120.598,216.031 120.440,216.369 120.246 C 216.708 120.053,216.874 119.894,216.738 119.894 C 216.603 119.894,216.215 120.053,215.877 120.246 M227.578 120.123 C 227.691 120.326,229.002 122.320,230.493 124.554 C 231.984 126.788,233.343 129.003,233.514 129.477 C 233.743 130.111,233.827 130.196,233.835 129.799 C 233.841 129.502,232.505 127.231,230.865 124.753 C 228.256 120.809,226.902 118.901,227.578 120.123 M156.482 121.905 C 156.423 122.211,156.373 122.018,156.370 121.477 C 156.367 120.935,156.415 120.685,156.477 120.920 C 156.538 121.156,156.541 121.599,156.482 121.905 M254.002 121.292 C 253.818 121.529,253.033 122.427,252.258 123.287 C 250.778 124.931,249.600 126.979,249.600 127.911 C 249.600 128.215,249.489 128.532,249.354 128.615 C 249.218 128.699,249.108 128.649,249.108 128.503 C 249.108 128.358,248.793 128.047,248.408 127.812 L 247.708 127.385 248.716 125.292 L 249.723 123.200 250.644 123.281 C 251.465 123.352,251.708 123.224,252.860 122.117 C 254.205 120.823,254.575 120.556,254.002 121.292 M208.927 121.778 C 209.370 121.833,210.035 121.832,210.404 121.776 C 210.774 121.720,210.412 121.675,209.600 121.676 C 208.788 121.678,208.485 121.724,208.927 121.778 M187.509 122.708 C 187.928 123.249,189.080 124.468,190.069 125.415 C 191.744 127.020,191.716 126.978,189.668 124.800 C 186.688 121.632,186.639 121.584,187.509 122.708 M196.923 121.936 C 196.923 122.003,197.255 122.295,197.662 122.585 C 198.068 122.874,198.400 123.055,198.400 122.987 C 198.400 122.920,198.068 122.628,197.662 122.338 C 197.255 122.049,196.923 121.868,196.923 121.936 M222.646 122.269 C 222.917 122.334,223.412 122.626,223.746 122.917 C 224.295 123.394,224.319 123.398,223.993 122.954 C 223.486 122.265,223.212 122.096,222.646 122.125 L 222.154 122.149 222.646 122.269 M185.349 123.069 C 185.635 123.472,185.995 123.878,186.148 123.973 C 186.302 124.068,186.118 123.739,185.739 123.242 C 184.916 122.163,184.606 122.026,185.349 123.069 M221.231 122.725 C 220.311 123.225,220.367 123.433,221.292 122.954 C 221.698 122.744,222.031 122.519,222.031 122.455 C 222.031 122.297,222.004 122.306,221.231 122.725 M225.823 125.939 C 227.702 128.748,227.700 128.740,226.646 129.606 L 225.846 130.264 226.646 129.817 C 227.942 129.094,227.894 128.699,226.198 126.128 C 225.353 124.846,224.557 123.733,224.431 123.654 C 224.304 123.576,224.931 124.604,225.823 125.939 M188.537 126.530 C 189.697 127.685,191.034 128.885,191.508 129.197 C 192.288 129.712,192.277 129.689,191.385 128.952 C 190.843 128.505,189.506 127.304,188.414 126.285 L 186.429 124.431 188.537 126.530 M217.354 124.677 C 217.015 124.870,216.849 125.029,216.985 125.029 C 217.120 125.029,217.508 124.870,217.846 124.677 C 218.185 124.483,218.351 124.325,218.215 124.325 C 218.080 124.325,217.692 124.483,217.354 124.677 M201.846 124.923 C 202.185 125.117,202.628 125.274,202.831 125.274 C 203.034 125.273,202.827 125.111,202.372 124.913 C 201.324 124.458,201.042 124.464,201.846 124.923 M155.929 127.508 C 156.240 127.508,156.658 127.261,156.859 126.958 C 157.214 126.423,157.235 126.447,157.623 127.779 C 157.877 128.655,158.386 129.565,159.032 130.298 L 160.042 131.446 159.174 131.446 C 158.697 131.446,158.238 131.557,158.154 131.692 C 157.865 132.159,157.591 131.935,157.056 130.797 C 156.510 129.635,154.802 127.179,154.342 126.895 C 154.203 126.808,153.909 126.385,153.689 125.954 C 153.350 125.288,153.446 125.346,154.327 126.338 C 154.996 127.092,155.566 127.508,155.929 127.508 M221.415 125.413 C 221.551 125.458,221.960 125.561,222.325 125.641 C 222.762 125.737,223.204 126.146,223.615 126.832 C 223.960 127.407,224.243 127.779,224.244 127.660 C 224.254 126.710,222.727 125.278,221.739 125.312 C 221.426 125.322,221.280 125.368,221.415 125.413 M182.189 126.277 C 183.653 128.490,188.690 133.124,191.138 134.511 C 191.871 134.927,191.872 134.926,191.265 134.480 C 187.220 131.507,184.905 129.390,182.433 126.400 C 181.698 125.510,181.674 125.498,182.189 126.277 M209.296 126.454 C 209.670 126.510,210.224 126.509,210.526 126.450 C 210.829 126.392,210.523 126.345,209.846 126.347 C 209.169 126.349,208.922 126.397,209.296 126.454 M215.385 127.877 C 214.911 128.059,214.689 128.209,214.892 128.209 C 215.095 128.209,215.649 128.059,216.123 127.877 C 216.597 127.694,216.818 127.545,216.615 127.545 C 216.412 127.545,215.858 127.694,215.385 127.877 M248.573 129.077 C 248.817 131.205,247.201 134.884,245.280 136.574 C 242.677 138.866,242.407 137.215,244.632 132.619 C 246.317 129.136,248.368 127.293,248.573 129.077 M206.708 128.666 C 207.012 128.725,207.511 128.725,207.815 128.666 C 208.120 128.607,207.871 128.559,207.262 128.559 C 206.652 128.559,206.403 128.607,206.708 128.666 M211.385 128.666 C 211.689 128.725,212.188 128.725,212.492 128.666 C 212.797 128.607,212.548 128.559,211.938 128.559 C 211.329 128.559,211.080 128.607,211.385 128.666 M222.215 129.986 C 221.708 130.254,221.292 130.528,221.292 130.595 C 221.292 130.663,221.735 130.492,222.277 130.215 C 222.818 129.939,223.262 129.660,223.262 129.595 C 223.262 129.434,223.260 129.435,222.215 129.986 M224.923 130.602 C 224.003 131.102,224.059 131.309,224.985 130.831 C 225.391 130.621,225.723 130.396,225.723 130.332 C 225.723 130.174,225.697 130.183,224.923 130.602 M231.760 131.723 C 229.471 133.341,228.974 133.719,229.415 133.506 C 230.112 133.171,233.320 130.962,233.474 130.712 C 233.692 130.359,233.669 130.373,231.760 131.723 M193.969 130.818 C 193.969 130.886,194.302 131.113,194.708 131.323 C 195.114 131.533,195.446 131.650,195.446 131.582 C 195.446 131.514,195.114 131.287,194.708 131.077 C 194.302 130.867,193.969 130.750,193.969 130.818 M160.888 132.836 C 165.199 136.048,167.506 140.049,164.189 138.560 C 161.763 137.472,159.498 135.239,158.846 133.292 C 158.309 131.689,159.109 131.511,160.888 132.836 M197.415 132.677 C 197.889 132.936,198.388 133.149,198.523 133.149 C 198.658 133.149,198.382 132.936,197.908 132.677 C 197.434 132.418,196.935 132.205,196.800 132.205 C 196.665 132.205,196.942 132.418,197.415 132.677 M220.554 132.800 C 220.215 132.993,220.049 133.152,220.185 133.152 C 220.320 133.152,220.708 132.993,221.046 132.800 C 221.385 132.607,221.551 132.448,221.415 132.448 C 221.280 132.448,220.892 132.607,220.554 132.800 M205.354 133.093 C 205.591 133.155,205.978 133.155,206.215 133.093 C 206.452 133.031,206.258 132.980,205.785 132.980 C 205.311 132.980,205.117 133.031,205.354 133.093 M212.738 133.093 C 212.975 133.155,213.363 133.155,213.600 133.093 C 213.837 133.031,213.643 132.980,213.169 132.980 C 212.695 132.980,212.502 133.031,212.738 133.093 M208.185 133.351 C 208.895 133.400,210.058 133.400,210.769 133.351 C 211.480 133.301,210.898 133.260,209.477 133.260 C 208.055 133.260,207.474 133.301,208.185 133.351 M217.846 133.785 C 217.372 133.967,217.151 134.120,217.354 134.124 C 217.557 134.128,218.055 133.979,218.462 133.794 C 219.412 133.358,218.970 133.352,217.846 133.785 M165.169 135.805 C 165.169 135.990,164.948 135.795,163.928 134.708 L 162.831 133.538 164.000 134.636 C 164.643 135.239,165.169 135.766,165.169 135.805 M226.892 134.787 C 225.972 135.286,226.028 135.494,226.954 135.015 C 227.360 134.805,227.692 134.581,227.692 134.517 C 227.692 134.358,227.666 134.367,226.892 134.787 M206.456 135.070 C 206.893 135.124,207.668 135.125,208.179 135.072 C 208.690 135.019,208.332 134.974,207.385 134.973 C 206.437 134.972,206.019 135.016,206.456 135.070 M210.646 135.070 C 211.086 135.125,211.806 135.125,212.246 135.070 C 212.686 135.016,212.326 134.971,211.446 134.971 C 210.566 134.971,210.206 135.016,210.646 135.070 M161.969 138.008 C 161.969 138.251,161.048 137.577,160.369 136.838 C 159.658 136.064,159.674 136.069,160.800 136.970 C 161.443 137.484,161.969 137.951,161.969 138.008 M222.523 136.985 C 222.185 137.178,222.018 137.336,222.154 137.336 C 222.289 137.336,222.677 137.178,223.015 136.985 C 223.354 136.791,223.520 136.633,223.385 136.633 C 223.249 136.633,222.862 136.791,222.523 136.985 M196.185 137.231 C 196.523 137.424,196.911 137.583,197.046 137.583 C 197.182 137.583,197.015 137.424,196.677 137.231 C 196.338 137.037,195.951 136.879,195.815 136.879 C 195.680 136.879,195.846 137.037,196.185 137.231 M243.055 137.939 L 243.917 138.523 242.758 139.630 C 242.121 140.239,241.337 141.045,241.015 141.422 C 240.433 142.103,240.426 142.104,240.030 141.609 C 239.810 141.335,239.430 141.004,239.184 140.875 C 238.789 140.667,238.853 140.564,239.737 139.979 C 240.286 139.616,241.014 138.876,241.355 138.336 C 242.087 137.177,241.973 137.204,243.055 137.939 M167.627 139.185 C 168.201 139.854,169.112 140.721,169.653 141.112 L 170.635 141.824 170.117 142.306 C 169.521 142.862,169.451 143.678,169.940 144.376 C 170.446 145.099,171.569 147.146,171.569 147.345 C 171.569 147.712,170.325 145.777,169.647 144.357 C 169.131 143.274,168.460 142.441,167.184 141.298 C 165.520 139.808,165.455 139.711,165.915 139.389 C 166.187 139.198,166.400 138.767,166.400 138.407 C 166.400 138.053,166.441 137.810,166.492 137.867 C 166.543 137.923,167.053 138.516,167.627 139.185 M198.769 138.224 C 199.175 138.410,199.674 138.559,199.877 138.555 C 200.080 138.551,199.858 138.398,199.385 138.215 C 198.261 137.783,197.819 137.789,198.769 138.224 M219.323 138.215 C 218.849 138.398,218.628 138.551,218.831 138.555 C 219.034 138.559,219.532 138.410,219.938 138.224 C 220.889 137.789,220.447 137.783,219.323 138.215 M201.723 139.077 C 201.994 139.193,202.437 139.285,202.708 139.281 C 203.103 139.275,203.079 139.235,202.585 139.077 C 201.743 138.807,201.096 138.807,201.723 139.077 M205.846 139.746 C 206.218 139.802,206.828 139.802,207.200 139.746 C 207.572 139.689,207.268 139.643,206.523 139.643 C 205.778 139.643,205.474 139.689,205.846 139.746 M211.757 139.746 C 212.131 139.802,212.685 139.801,212.988 139.743 C 213.291 139.684,212.985 139.638,212.308 139.640 C 211.631 139.641,211.383 139.689,211.757 139.746 M239.508 141.809 C 239.508 143.268,237.038 145.647,234.529 146.606 C 230.612 148.103,229.192 147.492,231.553 145.325 C 233.773 143.287,239.508 140.752,239.508 141.809 M172.783 143.689 C 175.148 145.040,179.456 149.996,178.819 150.633 C 178.508 150.944,175.924 150.292,174.845 149.629 C 172.988 148.489,169.830 144.054,170.196 143.099 C 170.383 142.613,171.241 142.809,172.783 143.689 M175.015 144.369 C 175.186 144.575,175.213 144.738,175.076 144.738 C 174.940 144.738,174.692 144.572,174.523 144.369 C 174.352 144.163,174.325 144.000,174.463 144.000 C 174.598 144.000,174.847 144.166,175.015 144.369 M238.883 144.595 C 238.669 144.922,238.307 145.261,238.078 145.349 C 237.834 145.442,237.961 145.197,238.385 144.754 C 239.255 143.846,239.406 143.798,238.883 144.595 M176.877 146.277 L 177.600 147.077 176.800 146.354 C 176.054 145.680,175.887 145.477,176.077 145.477 C 176.119 145.477,176.479 145.837,176.877 146.277 M229.739 146.685 C 229.666 146.963,229.825 147.364,230.129 147.667 L 230.642 148.180 228.876 149.070 C 227.628 149.698,226.591 150.492,225.337 151.779 C 224.361 152.781,223.479 153.600,223.376 153.600 C 223.274 153.600,223.760 152.997,224.457 152.261 C 225.766 150.876,225.989 150.209,225.354 149.574 C 224.839 149.059,224.860 149.027,226.006 148.568 C 226.567 148.343,227.638 147.722,228.384 147.187 C 229.964 146.056,229.897 146.081,229.739 146.685 M233.231 147.938 C 233.147 148.074,232.614 148.177,232.047 148.167 C 231.245 148.154,231.125 148.103,231.508 147.938 C 232.204 147.639,233.416 147.639,233.231 147.938 M225.170 150.338 C 225.574 151.564,220.597 155.030,218.111 155.256 C 215.351 155.506,215.290 154.727,217.927 152.911 C 221.442 150.491,224.825 149.289,225.170 150.338 M190.515 152.892 C 193.728 153.692,194.316 154.557,191.986 155.057 C 188.725 155.756,184.565 154.793,183.952 153.195 C 183.576 152.216,187.138 152.051,190.515 152.892 M196.431 153.739 C 198.502 153.993,198.646 154.057,198.646 154.729 C 198.646 155.073,198.755 155.558,198.887 155.806 C 199.116 156.233,199.070 156.239,198.030 155.926 C 196.788 155.552,194.029 155.438,192.738 155.707 C 192.265 155.805,191.954 155.802,192.049 155.699 C 192.144 155.596,192.587 155.435,193.034 155.341 C 193.787 155.183,193.844 155.103,193.816 154.239 C 193.786 153.324,193.799 153.310,194.554 153.456 C 194.977 153.537,195.822 153.665,196.431 153.739 M203.880 153.527 C 203.578 153.586,203.024 153.587,202.650 153.530 C 202.275 153.474,202.523 153.426,203.200 153.424 C 203.877 153.422,204.183 153.469,203.880 153.527 M215.656 153.939 C 215.501 154.125,215.404 154.644,215.441 155.092 C 215.507 155.899,215.495 155.909,214.031 156.232 C 210.763 156.953,211.021 156.986,211.021 155.842 C 211.021 154.847,211.035 154.831,211.910 154.816 C 212.400 154.808,213.465 154.544,214.277 154.229 C 215.089 153.914,215.795 153.644,215.846 153.628 C 215.896 153.613,215.811 153.753,215.656 153.939 M208.418 154.829 C 211.269 155.626,211.362 156.194,208.816 157.253 C 205.727 158.539,197.495 156.241,199.446 154.638 C 200.337 153.907,205.515 154.016,208.418 154.829 M200.924 156.895 C 201.567 157.150,202.092 157.452,202.092 157.566 C 202.092 157.788,201.457 157.575,200.185 156.926 C 199.514 156.584,198.992 156.093,199.570 156.349 C 199.673 156.394,200.282 156.640,200.924 156.895 M144.738 166.646 C 144.073 167.311,144.119 168.264,144.850 168.996 C 146.013 170.159,147.692 169.447,147.692 167.792 C 147.692 166.276,145.831 165.554,144.738 166.646 M123.446 166.746 C 106.341 170.068,105.950 196.923,122.944 201.228 C 127.715 202.437,133.894 200.893,137.509 197.590 C 140.029 195.286,138.847 193.316,136.201 195.408 C 128.899 201.180,118.712 199.489,115.087 191.904 C 112.741 186.993,112.748 180.221,115.105 175.734 C 119.568 167.237,132.717 166.960,137.081 175.271 C 138.126 177.261,138.523 177.723,139.189 177.723 C 142.164 177.723,138.837 171.050,134.615 168.547 C 131.536 166.723,127.181 166.020,123.446 166.746 M146.716 167.400 C 146.919 167.780,146.911 168.001,146.685 168.274 C 146.229 168.824,145.369 168.599,145.271 167.905 C 145.130 166.910,146.246 166.521,146.716 167.400 M130.403 167.755 C 134.573 168.738,138.729 172.437,139.247 175.625 C 139.476 177.040,138.808 176.685,137.887 174.902 C 134.627 168.598,126.550 166.469,119.472 170.050 C 110.762 174.456,109.962 190.792,118.154 196.959 C 122.971 200.585,130.527 200.612,135.533 197.020 C 137.584 195.549,137.600 195.541,137.600 196.056 C 137.600 196.511,135.429 198.245,133.865 199.037 C 121.287 205.411,108.543 193.928,111.850 179.200 C 113.765 170.670,121.784 165.723,130.403 167.755 M208.629 171.870 C 208.359 172.257,208.246 173.006,208.246 174.425 C 208.246 176.820,208.181 176.895,205.966 177.030 C 202.341 177.251,202.858 179.692,206.530 179.692 C 208.254 179.692,208.206 179.458,208.292 188.191 C 208.379 197.008,208.515 197.751,210.344 199.356 C 213.141 201.812,220.921 201.171,219.921 198.567 C 219.683 197.946,218.994 197.857,216.894 198.179 C 213.862 198.643,212.243 198.018,211.411 196.062 C 210.981 195.051,210.786 180.561,211.196 180.067 C 211.410 179.808,212.580 179.711,216.224 179.649 C 221.387 179.562,221.876 179.438,221.736 178.242 C 221.608 177.157,220.852 176.992,215.988 176.988 C 210.717 176.984,210.957 177.112,210.946 174.289 C 210.936 171.470,209.766 170.248,208.629 171.870 M210.066 172.943 C 210.148 173.157,210.217 174.127,210.219 175.097 C 210.225 177.921,210.323 177.969,215.969 177.969 C 218.339 177.969,220.339 178.067,220.413 178.187 C 220.658 178.583,219.497 178.701,215.323 178.704 C 209.672 178.709,210.215 177.789,210.215 187.356 C 210.215 198.325,211.028 199.829,216.652 199.275 C 218.429 199.100,218.780 199.229,217.672 199.650 C 215.417 200.507,211.577 199.699,210.410 198.122 C 209.389 196.743,209.371 196.590,209.237 188.025 C 209.088 178.479,209.143 178.708,206.997 178.708 C 206.352 178.708,205.650 178.640,205.436 178.558 C 204.656 178.259,205.076 177.969,206.289 177.969 C 208.731 177.969,209.222 177.363,209.227 174.338 C 209.231 172.585,209.657 171.877,210.066 172.943 M160.949 176.557 C 160.050 176.871,158.881 177.428,158.351 177.795 C 157.114 178.652,156.952 178.636,156.340 177.600 C 155.750 176.599,155.040 176.480,154.475 177.286 C 154.143 177.761,154.092 179.264,154.092 188.714 L 154.092 199.595 154.711 200.081 C 155.395 200.620,156.198 200.541,156.540 199.902 C 156.660 199.679,156.799 195.955,156.850 191.625 C 156.956 182.582,156.987 182.424,159.067 180.554 C 161.657 178.226,166.859 177.983,169.305 180.076 C 171.303 181.787,171.426 182.422,171.525 191.502 C 171.572 195.898,171.709 199.678,171.829 199.902 C 172.162 200.524,172.979 200.625,173.601 200.122 L 174.154 199.673 174.154 191.467 C 174.154 182.097,174.037 181.366,172.183 179.086 C 169.877 176.251,164.984 175.149,160.949 176.557 M187.741 176.257 C 176.028 179.177,176.472 198.605,188.315 201.334 C 192.972 202.408,200.193 199.553,198.105 197.465 C 197.648 197.008,197.168 197.104,195.569 197.970 C 190.431 200.751,182.421 197.237,182.402 192.193 C 182.398 191.066,182.793 191.015,191.508 191.015 C 201.341 191.015,201.108 191.100,201.108 187.520 C 201.108 179.590,195.003 174.446,187.741 176.257 M231.814 176.252 C 220.789 179.028,219.991 196.656,230.699 200.878 C 236.970 203.349,244.036 199.678,245.891 192.985 C 248.680 182.921,241.103 173.914,231.814 176.252 M258.769 176.380 C 248.605 179.117,247.214 195.765,256.769 200.325 C 265.214 204.356,273.490 198.737,273.564 188.923 C 273.633 179.819,266.971 174.172,258.769 176.380 M286.212 176.268 C 285.204 176.505,283.581 177.273,282.547 178.001 C 281.661 178.625,281.191 178.580,281.008 177.853 C 280.652 176.432,279.061 176.478,278.636 177.923 C 278.232 179.299,278.417 199.428,278.839 199.936 C 279.337 200.536,280.075 200.610,280.678 200.122 C 281.226 199.679,281.232 199.603,281.354 191.584 C 281.477 183.501,281.478 183.491,282.106 182.271 C 284.490 177.643,292.735 177.325,295.012 181.774 L 295.754 183.225 295.877 191.450 L 296.000 199.675 296.581 200.145 C 297.302 200.728,297.406 200.728,298.127 200.144 L 298.708 199.673 298.708 191.714 C 298.708 182.767,298.588 181.938,296.948 179.519 C 294.989 176.631,290.474 175.264,286.212 176.268 M145.197 177.209 L 144.615 177.679 144.615 188.648 C 144.615 200.866,144.626 200.944,146.285 200.528 C 147.420 200.243,147.466 199.734,147.392 188.387 C 147.313 176.205,147.193 175.593,145.197 177.209 M166.776 177.007 C 169.908 177.586,171.940 179.305,172.806 182.108 C 173.457 184.216,173.564 199.138,172.928 199.138 C 172.365 199.138,172.318 198.553,172.249 190.523 C 172.178 182.258,172.126 181.949,170.468 179.988 C 167.249 176.179,159.219 177.268,156.911 181.826 L 156.185 183.262 156.062 191.015 C 155.947 198.236,155.811 199.744,155.320 199.221 C 155.156 199.046,154.927 182.872,155.039 179.385 C 155.084 178.004,155.418 177.872,155.815 179.077 C 156.150 180.090,156.821 180.210,157.785 179.428 C 160.547 177.188,163.481 176.398,166.776 177.007 M194.462 177.537 C 197.662 178.704,199.813 182.187,200.058 186.600 C 200.223 189.548,200.019 190.031,198.611 190.031 L 197.609 190.031 198.407 189.286 L 199.204 188.542 199.083 186.148 C 198.755 179.628,193.664 176.205,187.287 178.217 C 182.616 179.690,179.039 187.392,182.078 189.434 L 182.864 189.963 182.256 190.288 C 179.660 191.677,183.253 198.165,187.299 199.394 C 189.663 200.112,193.709 200.016,195.516 199.199 C 196.164 198.906,196.634 198.762,196.562 198.880 C 196.489 198.997,195.572 199.455,194.523 199.897 C 188.720 202.342,182.260 198.831,180.572 192.316 C 178.037 182.535,185.728 174.351,194.462 177.537 M236.554 177.001 C 243.105 178.061,246.924 184.829,245.169 192.270 C 242.427 203.897,226.126 203.302,224.257 191.508 C 222.951 183.266,227.093 177.356,234.585 176.771 C 234.788 176.755,235.674 176.859,236.554 177.001 M263.823 176.993 C 270.446 178.068,274.117 184.733,272.355 192.482 C 269.975 202.944,255.124 203.577,251.905 193.354 C 249.551 185.881,253.407 178.113,260.017 177.009 C 261.801 176.711,262.078 176.710,263.823 176.993 M293.129 177.529 C 294.864 178.178,296.405 179.743,297.143 181.607 C 297.748 183.133,298.175 198.301,297.635 199.108 C 296.986 200.081,296.862 198.965,296.862 192.154 C 296.862 185.007,296.675 182.981,295.875 181.412 C 293.143 176.057,283.791 176.560,281.218 182.201 L 280.510 183.754 280.378 191.508 C 280.265 198.177,280.195 199.262,279.877 199.262 C 279.556 199.262,279.499 197.922,279.443 188.938 C 279.384 179.357,279.512 177.026,280.010 178.605 C 280.499 180.157,281.158 180.273,282.720 179.081 C 285.758 176.761,289.561 176.194,293.129 177.529 M231.947 178.064 C 221.153 181.602,223.569 199.877,234.831 199.877 C 247.609 199.877,247.973 178.299,235.203 177.810 C 233.763 177.754,232.621 177.844,231.947 178.064 M259.083 178.133 C 254.001 179.692,251.174 185.814,252.649 192.067 C 255.195 202.866,269.621 202.321,271.531 191.353 C 273.072 182.503,266.744 175.783,259.083 178.133 M146.403 188.815 C 146.347 197.908,146.291 199.262,145.969 199.262 C 145.481 199.262,145.277 178.876,145.759 178.295 C 146.389 177.535,146.465 178.762,146.403 188.815 M194.351 179.379 C 196.586 180.543,197.748 182.410,198.210 185.576 C 198.660 188.664,199.342 188.420,190.071 188.496 L 182.165 188.561 182.010 187.942 C 181.412 185.559,183.769 180.900,186.215 179.630 C 188.313 178.541,192.494 178.412,194.351 179.379 M238.823 179.524 C 242.977 181.557,244.859 187.716,242.973 193.108 C 240.062 201.429,228.597 200.718,226.358 192.077 C 224.049 183.166,231.314 175.851,238.823 179.524 M266.288 179.681 C 273.242 183.408,272.137 196.383,264.681 198.550 C 255.618 201.185,249.323 189.523,255.459 181.465 C 257.560 178.705,262.844 177.835,266.288 179.681 " stroke="none" fill="#fcda9a" fill-rule="evenodd"></path></g></svg>